<?xml version="1.0" standalone="no"?>
<!DOCTYPE svg PUBLIC "-//W3C//DTD SVG 1.1//EN" "http://www.w3.org/Graphics/SVG/1.1/DTD/svg11.dtd" >
<svg xmlns="http://www.w3.org/2000/svg">
<metadata></metadata>
<defs>
<font id="politicalight" horiz-adv-x="1101" >
<font-face units-per-em="2048" ascent="1698" descent="-350" />
<missing-glyph horiz-adv-x="413" />
<glyph unicode="&#xfb01;" horiz-adv-x="993" d="M25 1110v37h231v215q0 85 59 144t144 61h51v-37h-51q-68 -2 -117 -49t-49 -119v-215h471v-963q0 -72 47 -119t115 -49h14v-36h-14q-82 2 -140.5 61t-58.5 143v926h-434v-1229q0 -85 -59.5 -145t-145.5 -60v37q69 0 118.5 48t49.5 120v1229h-231zM727 1350v217h37v-217 h-37z" />
<glyph unicode="&#xfb02;" horiz-adv-x="993" d="M25 1110v37h231v215q0 85 59 144t144 61h309v-1383q0 -72 47 -119t115 -49h14v-36h-14q-82 2 -140.5 61t-58.5 143v1346h-272q-68 -2 -117 -49t-49 -119v-215h280v-37h-280v-1229q0 -85 -59.5 -145t-145.5 -60v37q69 0 118.5 48t49.5 120v1229h-231z" />
<glyph horiz-adv-x="0" />
<glyph horiz-adv-x="682" />
<glyph unicode=" "  horiz-adv-x="413" />
<glyph unicode="&#x09;" horiz-adv-x="413" />
<glyph unicode="&#xa0;" horiz-adv-x="413" />
<glyph unicode="!" horiz-adv-x="360" d="M162 0v217h37v-217h-37zM162 422v1208h37v-1208h-37z" />
<glyph unicode="&#x22;" horiz-adv-x="512" d="M131 1036v529h37v-529h-37zM344 1036v529h37v-529h-37z" />
<glyph unicode="#" horiz-adv-x="1437" d="M162 596v35h246l106 338h-281v35h291l117 368h35l-117 -368h402l116 368h35l-117 -368h281v-35h-291l-106 -338h325v-35h-338l-123 -391h-34l122 391h-401l-123 -391h-35l123 391h-233zM442 631h402l106 338h-401z" />
<glyph unicode="$" d="M184 475v182h37v-182q0 -98 69 -166.5t167 -68.5h73v565q-234 120 -286 166q-60 54 -60 106v41q0 116 80 193q80 80 193 80h73v186h35v-186h80q113 0 193 -80q80 -77 80 -193v-41h-37v41q0 99 -70 166q-70 70 -166 70h-80v-527q30 -16 79.5 -41t66.5 -34q54 -29 104 -66 q103 -66 103 -141v-70q0 -112 -80 -192t-193 -80h-80v-203h-35v203h-73q-113 0 -193 80t-80 192zM221 1079q0 -30 19 -55t71 -59l90 -54q51 -27 129 -65v508h-73q-98 0 -167 -69t-69 -167v-39zM565 240h80q96 0 166 67q70 70 70 168v68q0 52 -66.5 100t-249.5 143v-546z" />
<glyph unicode="%" horiz-adv-x="1683" d="M131 1016v305q0 115 68 192q68 80 163 80h162q96 0 164 -80q68 -77 68 -192v-305q0 -113 -68 -193t-164 -80h-162q-95 0 -163 80t-68 193zM166 1016q0 -98 57 -167t139 -69h162q82 0 139.5 69t57.5 167v305q0 98 -57.5 168t-139.5 70h-162q-82 0 -139 -70t-57 -168v-305z M506 0l647 1634h39l-649 -1634h-37zM926 252v305q0 117 67 193q67 79 164 79h164q97 0 164 -79q67 -76 67 -193v-305q0 -114 -67 -193t-164 -79h-164q-97 0 -164 79t-67 193zM963 252q0 -99 56 -167.5t138 -68.5h164q82 0 138.5 69t56.5 167v305q0 99 -57 168.5t-138 69.5 h-164q-81 0 -137.5 -69.5t-56.5 -168.5v-305z" />
<glyph unicode="&#x26;" horiz-adv-x="1206" d="M131 236v303q0 83 47.5 149t124.5 96q-70 31 -114 98t-44 144v297q0 120 73.5 184t203.5 64h207q126 0 195 -64t69 -184v-162h-37v162q0 103 -58.5 157t-168.5 54h-207q-112 0 -176 -55t-64 -156v-297q0 -74 43 -133.5t113 -89.5h303v-37h-303q-76 -25 -123 -86.5 t-47 -140.5v-301q0 -100 70 -155.5t186 -55.5h205q107 0 167 54t60 157v675h37v-110h260v-37h-260v-530q0 -120 -69 -183t-195 -63h-207q-132 0 -211.5 65t-79.5 181z" />
<glyph unicode="'" horiz-adv-x="299" d="M131 1036v529h37v-529h-37z" />
<glyph unicode="(" horiz-adv-x="477" d="M100 778q0 543 320 946h39q-322 -404 -322 -946t322 -946h-39q-320 403 -320 946z" />
<glyph unicode=")" horiz-adv-x="477" d="M18 -168q322 404 322 946t-322 946h39q320 -403 320 -946t-320 -946h-39z" />
<glyph unicode="*" horiz-adv-x="882" d="M131 1309v30l305 -71v315h31v-315l285 71v-30l-279 -70l242 -244l-21 -22l-241 244l-256 -259l-23 23l256 258z" />
<glyph unicode="+" d="M193 702v37h337v316h37v-316h342v-37h-342v-364h-37v364h-337z" />
<glyph unicode="," horiz-adv-x="360" d="M162 317h37v-636h-37v636z" />
<glyph unicode="-" horiz-adv-x="829" d="M121 702v35h588v-35h-588z" />
<glyph unicode="." horiz-adv-x="321" d="M131 31q0 30 31 30q28 0 28 -30q0 -31 -28 -31q-31 0 -31 31z" />
<glyph unicode="/" horiz-adv-x="798" d="M18 -123l727 1884h35l-725 -1884h-37z" />
<glyph unicode="0" d="M184 252v1063q0 115 80 192q80 80 193 80h188q113 0 193 -80q80 -77 80 -192v-1063q0 -113 -80 -193q-79 -79 -193 -79h-188q-114 0 -193 79q-80 80 -80 193zM221 252q0 -98 69 -167t167 -69h188q95 0 166 68q70 70 70 168v1063q0 99 -70 166q-69 69 -166 69h-188 q-98 0 -167 -68.5t-69 -166.5v-1063z" />
<glyph unicode="1" d="M117 0v37h473v1493h-418v37h455v-1530h387v-37h-897z" />
<glyph unicode="2" d="M168 0v29q0 75 21.5 154.5t48.5 135.5q18 43 84 125l79 99l95 98q20 23 98 94q70 64 113 107q84 82 140.5 178.5t49.5 189.5v84q0 107 -76 183q-75 75 -182 75h-176q-107 0 -182 -75q-76 -76 -76 -183h-37q0 123 86 209t209 86h176q123 0 209 -86t86 -209v-84 q0 -94 -47 -190q-49 -96 -96 -146q-32 -36 -144 -141l-125 -119q-60 -60 -114 -122q-31 -33 -97 -123q-106 -149 -106 -332h729v-37h-766z" />
<glyph unicode="3" d="M178 1294v43q0 120 69 183t195 63h176q132 0 211.5 -65t79.5 -181v-239q0 -81 -43 -147.5t-114 -92.5q78 -26 125 -94.5t47 -153.5v-385q0 -116 -79.5 -180.5t-211.5 -64.5h-182q-126 0 -196.5 62.5t-70.5 182.5v353h37v-353q0 -209 230 -209h180q116 0 186 54.5 t70 154.5v385q0 77 -46 139t-120 87h-229v36h229q68 29 109.5 91t41.5 135v239q0 100 -70 154.5t-186 54.5h-174q-108 0 -167.5 -53t-59.5 -156v-43h-37z" />
<glyph unicode="4" d="M55 348l574 1219h209v-1182h106v-37h-106v-348h-37v348h-746zM109 385h692v1145h-148z" />
<glyph unicode="5" d="M184 225v353h37v-353q0 -103 59 -156t169 -53h174q116 0 186 54.5t70 154.5v387q0 100 -70 170q-67 70 -166 70h-414v713h689v-35h-652v-641h377q118 0 195 -80t77 -197v-387q0 -116 -79 -180.5t-211 -64.5h-176q-126 0 -195.5 62.5t-69.5 182.5z" />
<glyph unicode="6" d="M184 254v1087q0 117 72.5 182.5t196.5 65.5h188q126 0 199 -65.5t73 -182.5v-180h-36v180q0 101 -63 156t-173 55h-188q-110 0 -171 -54t-61 -157v-602q31 68 95 109t141 41h188q113 0 193 -80t80 -193v-362q0 -113 -80 -193q-79 -79 -193 -79h-188q-114 0 -193 79 q-80 80 -80 193zM221 254q0 -98 69 -167t167 -69h188q95 0 166 68q70 70 70 168v362q0 99 -70 166q-70 70 -166 70h-188q-94 0 -166 -66q-70 -64 -70 -159v-373z" />
<glyph unicode="7" d="M182 1540v37h738l-494 -1577h-39l483 1540h-688z" />
<glyph unicode="8" d="M182 254v356q0 84 46 150.5t124 95.5q-70 31 -112.5 97t-42.5 145v217q0 113 79 192q80 80 193 80h164q112 0 192 -80t80 -192v-217q0 -79 -42.5 -144.5t-114.5 -97.5q78 -26 125 -93.5t47 -152.5v-356q0 -113 -80 -193q-79 -79 -193 -79h-192q-114 0 -193 79 q-80 80 -80 193zM219 254q0 -98 69 -167t167 -69h192q95 0 166 68q70 70 70 168v356q0 79 -45 140t-119 88h-336q-74 -27 -119 -88t-45 -140v-356zM233 1098q0 -68 37 -123q23 -34 49.5 -58t41.5 -32t22 -8h334q8 0 41 20q41 27 75.5 83t34.5 118v217q0 100 -69 166 q-69 69 -166 69h-164q-98 0 -167 -68.5t-69 -166.5v-217z" />
<glyph unicode="9" d="M184 954v363q0 112 80 192t193 80h188q113 0 193 -80t80 -192v-1088q0 -117 -72.5 -182t-196.5 -65h-188q-126 0 -199.5 65t-73.5 182v181h37v-181q0 -101 63 -156t173 -55h188q110 0 171 54t61 157v602q-33 -68 -96 -108.5t-140 -40.5h-188q-113 0 -193 80t-80 192z M221 954q0 -98 70 -168q70 -67 166 -67h188q95 0 166 65q70 64 70 160v373q0 98 -69 166.5t-167 68.5h-188q-97 0 -166 -69q-70 -67 -70 -166v-363z" />
<glyph unicode=":" horiz-adv-x="321" d="M131 31q0 30 31 30q28 0 28 -30q0 -31 -28 -31q-31 0 -31 31zM131 979q0 31 31 31q28 0 28 -31t-28 -31q-31 0 -31 31z" />
<glyph unicode=";" horiz-adv-x="321" d="M131 981q0 31 31 31q28 0 28 -31t-28 -31q-31 0 -31 31zM139 317h37v-636h-37v636z" />
<glyph unicode="&#x3c;" d="M305 858l447 465l28 -18l-432 -447l449 -467l-27 -20z" />
<glyph unicode="=" d="M193 514v35h716v-35h-716zM193 887v35h716v-35h-716z" />
<glyph unicode="&#x3e;" d="M305 391l449 467l-432 447l26 18l449 -465l-467 -487z" />
<glyph unicode="?" horiz-adv-x="948" d="M88 1165v213q0 112 78 193q80 80 194 80h228q112 0 192 -80t80 -193v-231q0 -91 -63 -147t-162 -58h-10q-88 0 -143.5 -44.5t-55.5 -123.5v-375h-37v375q0 92 67.5 148.5t168.5 56.5h10q84 2 136 46t52 122v231q0 98 -68.5 167t-166.5 69h-228q-98 0 -166.5 -69 t-68.5 -167v-213h-37zM389 0v217h37v-217h-37z" />
<glyph unicode="@" horiz-adv-x="1609" d="M131 319v529q0 188 131 319t320 131h446q185 0 318 -133t133 -317v-436q0 -100 -72 -172q-70 -70 -172 -70h-109v172q-391 -203 -497 -203q-82 0 -139.5 57.5t-57.5 139.5v432q0 113 80 193q79 79 193 79h186q113 0 192 -79q80 -80 80 -193v-561h64q86 0 151 59 q64 61 64 146v436q0 170 -121 291q-120 123 -293 123h-446q-173 0 -293 -123q-121 -121 -121 -291v-529q0 -168 121 -292q121 -121 293 -121h356v-37h-356q-189 0 -320 131t-131 319zM469 336q0 -68 48 -114t112 -46q53 0 172 51q110 46 225 105l100 51v385q0 100 -68 168 t-167 68h-186q-98 0 -167 -69t-69 -167v-432z" />
<glyph unicode="A" horiz-adv-x="1034" d="M39 0l287 1569q6 29 32 49t58 20h202q32 0 58.5 -20t30.5 -49l288 -1569h-37l-88 471h-708l-86 -471h-37zM170 508h694l-192 1042q-5 23 -22 37.5t-40 14.5h-186q-55 0 -64 -52z" />
<glyph unicode="B" horiz-adv-x="1085" d="M162 0v1638h545q101 0 172 -71q73 -70 73 -174v-295q0 -77 -43.5 -144t-113.5 -98q77 -30 124.5 -96.5t47.5 -149.5v-364q0 -102 -72 -174t-174 -72h-559zM199 37h520q88 0 149.5 61.5t61.5 147.5v364q0 78 -45 140t-119 88h-567v-801zM199 874h567q67 31 107 90t40 130 v299q0 81 -61 145t-145 64h-508v-728z" />
<glyph unicode="C" horiz-adv-x="1054" d="M131 274v1082q0 123 86 209t209 86h215q123 0 209 -86t86 -209v-258h-37v258q0 106 -76 182t-182 76h-215q-106 0 -182 -76t-76 -182v-1082q0 -106 76 -182t182 -76h215q110 0 184 74q74 77 74 184v324h37v-324q0 -122 -86 -208t-209 -86h-215q-123 0 -209 86t-86 208z " />
<glyph unicode="D" horiz-adv-x="1095" d="M162 0v1638h510q127 0 209 -82q86 -80 86 -200v-1061q0 -123 -86 -209t-209 -86h-510zM199 37h473q106 0 182 76t76 182v1061q0 106 -76 176q-73 70 -182 70h-473v-1565z" />
<glyph unicode="E" horiz-adv-x="925" d="M162 0v1638h684v-36h-647v-680h589v-37h-589v-848h645v-37h-682z" />
<glyph unicode="F" horiz-adv-x="868" d="M162 0v1638h684v-39h-647v-677h589v-37h-589v-885h-37z" />
<glyph unicode="G" horiz-adv-x="1048" d="M131 274v1082q0 123 86 209t209 86h209q123 0 209 -86t86 -209v-258h-37v258q0 106 -76 182t-182 76h-209q-106 0 -182 -76t-76 -182v-1082q0 -106 76 -182t182 -76h209q109 0 182 76q76 76 76 182v459h-387v37h424v-496q0 -122 -86 -208t-209 -86h-209q-123 0 -209 86 t-86 208z" />
<glyph unicode="H" horiz-adv-x="1120" d="M162 0v1638h37v-716h725v716h37v-1638h-37v885h-725v-885h-37z" />
<glyph unicode="I" horiz-adv-x="380" d="M172 0v1638h37v-1638h-37z" />
<glyph unicode="J" horiz-adv-x="972" d="M47 274v324h37v-324q0 -105 74 -182q76 -76 184 -76h207q106 0 182 76t76 182v1364h37v-1364q0 -122 -86 -208t-209 -86h-207q-123 0 -209 86t-86 208z" />
<glyph unicode="K" horiz-adv-x="1062" d="M162 0v1638h35v-716h405l402 716h36l-401 -725v-18l401 -895h-36l-402 887h-405v-887h-35z" />
<glyph unicode="L" horiz-adv-x="856" d="M162 0v1638h35v-1601h645v-37h-680z" />
<glyph unicode="M" horiz-adv-x="1366" d="M139 0l64 1638h104l375 -1534l377 1534h106l62 -1638h-37l-60 1602h-40l-390 -1582h-34l-387 1582h-41l-62 -1602h-37z" />
<glyph unicode="N" horiz-adv-x="1116" d="M162 0v1638h98l625 -1601h33v1601h36v-1638h-96l-625 1602h-34v-1602h-37z" />
<glyph unicode="O" horiz-adv-x="1064" d="M131 274v1082q0 123 86 209t209 86h215q123 0 209 -86t86 -209v-1082q0 -122 -86 -208t-209 -86h-215q-123 0 -209 86t-86 208zM168 274q0 -106 76 -182t182 -76h215q106 0 182 76t76 182v1082q0 106 -76 182t-182 76h-215q-106 0 -182 -76t-76 -182v-1082z" />
<glyph unicode="P" horiz-adv-x="1017" d="M162 0v1638h502q126 0 208 -82q86 -80 86 -200v-324q0 -123 -86 -209t-208 -86h-465v-737h-37zM199 774h465q106 0 182 76t76 182v324q0 106 -76 176q-73 70 -182 70h-465v-828z" />
<glyph unicode="Q" horiz-adv-x="1064" d="M131 274v1082q0 123 86 209t209 86h215q123 0 209 -86t86 -209v-1082q0 -122 -86 -208t-209 -86h-90v-287h-37v287h-88q-123 0 -209 86t-86 208zM168 274q0 -106 76 -182t182 -76h88v271h37v-271h90q106 0 182 76t76 182v1082q0 106 -76 182t-182 76h-215 q-106 0 -182 -76t-76 -182v-1082z" />
<glyph unicode="R" horiz-adv-x="1075" d="M162 0v1638h534q103 0 174 -71q72 -72 72 -174v-295q0 -77 -44 -144t-114 -98q77 -30 124.5 -96.5t47.5 -149.5v-610h-36v610q0 79 -45 140t-119 88h-557v-838h-37zM199 874h557q147 64 147 220v299q0 81 -61 145t-146 64h-497v-728z" />
<glyph unicode="S" horiz-adv-x="1005" d="M104 274v304h37v-304q0 -105 74 -182q76 -76 184 -76h191q106 0 182 76t76 182v158q0 91 -39 164q-25 59 -98 123q-41 41 -127 92l-70 39l-63 37q-6 2 -50 28l-51 31q-72 45 -98 68q-5 5 -23 20.5t-34 31t-23 26.5q-17 28 -26.5 46t-18.5 48.5t-6 56.5v113q0 123 86 209 t209 86h190q123 0 209 -86t86 -209h-37q0 106 -76 182t-182 76h-190q-109 0 -185 -76q-73 -76 -73 -182v-113q0 -81 88 -176q22 -22 121 -88q16 -11 67 -41l64 -37l51 -31l61 -36q35 -21 56 -35q45 -28 59 -45q2 -2 28 -26.5t42.5 -42.5t23.5 -34q66 -122 66 -219v-158 q0 -122 -86 -208t-209 -86h-191q-123 0 -209 86t-86 208z" />
<glyph unicode="T" horiz-adv-x="886" d="M18 1602v36h850v-36h-407v-1602h-37v1602h-406z" />
<glyph unicode="U" horiz-adv-x="1085" d="M139 274v1364h37v-1364q0 -106 76 -182t182 -76h215q109 0 182 76q76 76 76 182v1364h37v-1364q0 -122 -86 -208t-209 -86h-215q-123 0 -209 86t-86 208z" />
<glyph unicode="V" horiz-adv-x="1030" d="M39 1638h37l284 -1570q9 -52 64 -52h184q53 0 62 52l286 1570h37l-286 -1589q-6 -30 -31 -49.5t-58 -19.5h-204q-32 0 -57 19t-31 50z" />
<glyph unicode="W" horiz-adv-x="1679" d="M139 274v1364h37v-1364q0 -106 76 -182t182 -76h121q110 0 188 78q78 81 78 191v1353h37v-1353q0 -110 78 -191q78 -78 188 -78h121q106 0 182 76t76 182v1364h37v-1364q0 -122 -86 -208t-209 -86h-121q-102 0 -180.5 60t-103.5 155q-26 -94 -106 -154.5t-179 -60.5h-121 q-123 0 -209 86t-86 208z" />
<glyph unicode="X" horiz-adv-x="888" d="M39 0l383 901l-322 737h41l303 -702l306 702h38l-323 -739l385 -899h-41l-365 856l-366 -856h-39z" />
<glyph unicode="Y" horiz-adv-x="1036" d="M39 1638h37l280 -1093q5 -19 22.5 -34t39.5 -15h196q23 0 40 14t22 35l287 1093h36l-288 -1110q-5 -27 -31.5 -48t-58.5 -21h-89v-459h-36v459h-84q-31 0 -58 21.5t-32 47.5z" />
<glyph unicode="Z" horiz-adv-x="944" d="M63 0l760 1602h-760v36h818l-758 -1601h758v-37h-818z" />
<glyph unicode="[" horiz-adv-x="632" d="M162 -143v1925h452v-37h-415v-1851h415v-37h-452z" />
<glyph unicode="\" horiz-adv-x="710" d="M18 1638h37l637 -1638h-39z" />
<glyph unicode="]" horiz-adv-x="632" d="M18 -106h416v1851h-416v37h453v-1925h-453v37z" />
<glyph unicode="^" d="M303 1305l217 266h60l217 -266h-39l-191 233h-35l-192 -233h-37z" />
<glyph unicode="_" horiz-adv-x="894" d="M18 -84h859v-35h-859v35z" />
<glyph unicode="`" horiz-adv-x="565" d="M80 1567h35l207 -269h-37z" />
<glyph unicode="a" horiz-adv-x="948" d="M86 176v109q0 203 203 280l491 146v184q0 98 -67.5 165.5t-165.5 69.5h-141q-99 0 -168.5 -68.5t-69.5 -166.5v-41h-37v41q0 115 80 192q80 80 195 80h141q114 -3 190 -82q80 -77 80 -190v-895h-37v182q-389 -202 -497 -202q-82 0 -139.5 57t-57.5 139zM123 184 q0 -72 48.5 -120t113.5 -48q46 0 168 52q131 55 227 104l100 51v449l-475 -137q-86 -31 -134 -97.5t-48 -156.5v-97z" />
<glyph unicode="b" horiz-adv-x="983" d="M131 252v1315h37v-602q401 202 500 202q82 0 138 -57t56 -139v-719q0 -113 -80 -193q-79 -79 -192 -79h-187q-113 0 -192 79q-80 80 -80 193zM168 252q0 -98 68.5 -167t166.5 -69h187q98 0 166.5 69t68.5 167v715q0 71 -47 117t-114 46q-96 0 -496 -206v-672z" />
<glyph unicode="c" horiz-adv-x="913" d="M121 252v643q0 111 78 192q80 80 194 80h187q112 0 192 -80t80 -192v-154h-37v154q0 98 -68.5 166.5t-166.5 68.5h-187q-98 0 -166.5 -68.5t-68.5 -166.5v-643q0 -98 68.5 -167t166.5 -69h187q98 0 166.5 69t68.5 167v147h37v-147q0 -113 -80 -193q-79 -79 -192 -79h-187 q-113 0 -192 79q-80 80 -80 193z" />
<glyph unicode="d" horiz-adv-x="993" d="M121 176v719q0 112 80 192t192 80h187q74 0 136.5 -37t98.5 -100v535h37v-1565h-37v182q-404 -202 -500 -202q-82 0 -138 57t-56 139zM158 180q0 -71 47 -117.5t114 -46.5q91 0 496 207v672q0 98 -68.5 166.5t-166.5 68.5h-187q-98 0 -166.5 -68.5t-68.5 -166.5v-715z " />
<glyph unicode="e" horiz-adv-x="937" d="M121 252v643q0 111 78 192q80 80 194 80h187q112 0 192 -80t80 -192v-238h-694v-405q0 -98 68.5 -167t166.5 -69h187q98 0 166.5 69t68.5 167v147h37v-147q0 -113 -80 -193q-79 -79 -192 -79h-187q-113 0 -192 79q-80 80 -80 193zM158 694h657v201q0 98 -68.5 166.5 t-166.5 68.5h-187q-98 0 -166.5 -68.5t-68.5 -166.5v-201z" />
<glyph unicode="f" horiz-adv-x="575" d="M25 1110v37h231v215q0 85 59 144t144 61h51v-37h-51q-68 -2 -117 -49t-49 -119v-215h280v-37h-280v-1229q0 -85 -59.5 -145t-145.5 -60v37q69 0 118.5 48t49.5 120v1229h-231z" />
<glyph unicode="g" horiz-adv-x="983" d="M121 301v596q0 113 80 193q79 79 192 79h187q113 0 192 -79q80 -80 80 -193v-948q0 -112 -80 -189q-76 -79 -190 -79h-187q-113 0 -192 79q-80 80 -80 193v43h37v-43q0 -98 68.5 -167t166.5 -69h187q98 0 166.5 69t68.5 167v356l-43 -22q-366 -183 -457 -183 q-82 0 -139 57.5t-57 139.5zM158 301q0 -68 47.5 -114t111.5 -46q50 0 172 52q105 44 226 106l100 51v547q0 98 -68.5 167t-166.5 69h-187q-98 0 -166.5 -69t-68.5 -167v-596z" />
<glyph unicode="h" horiz-adv-x="1003" d="M141 0v1569h37v-604q389 202 498 202q82 0 139 -57t57 -139v-971h-36v965q0 72 -47.5 118.5t-112.5 46.5q-48 0 -170 -51q-131 -55 -227 -104l-101 -51v-924h-37z" />
<glyph unicode="i" horiz-adv-x="415" d="M152 184v963h36v-963q0 -72 47 -119t115 -49h15v-36h-15q-82 2 -140 61t-58 143zM152 1350v217h36v-217h-36z" />
<glyph unicode="j" horiz-adv-x="366" d="M-2 -283h18q68 5 115 51.5t47 116.5v1262h37v-1262q0 -85 -57 -144t-142 -60h-18v36zM178 1350v217h37v-217h-37z" />
<glyph unicode="k" horiz-adv-x="888" d="M141 0v1567h35v-932h297l299 512h39l-303 -520v-21l381 -606h-39l-377 598h-297v-598h-35z" />
<glyph unicode="l" horiz-adv-x="413" d="M152 184v1381h36v-1381q0 -72 47 -119t115 -49h15v-36h-15q-82 2 -140 61t-58 143z" />
<glyph unicode="m" horiz-adv-x="1564" d="M141 0v1147h37v-182q322 202 432 202q79 0 136 -56t59 -136v-10l35 20q309 182 397 182q82 0 139.5 -57t57.5 -139v-971h-37v963q0 72 -47.5 119.5t-112.5 47.5q-49 0 -154 -51q-118 -57 -194 -104l-84 -51v-924h-35v963q0 70 -48.5 117.5t-113.5 47.5q-48 0 -153 -51 q-129 -63 -193 -102l-84 -51v-924h-37z" />
<glyph unicode="n" horiz-adv-x="1003" d="M141 0v1147h37v-182q389 202 498 202q82 0 139 -57t57 -139v-971h-36v965q0 72 -47.5 118.5t-112.5 46.5q-48 0 -170 -51q-131 -55 -227 -104l-101 -51v-924h-37z" />
<glyph unicode="o" horiz-adv-x="972" d="M121 252v643q0 111 78 192q80 80 194 80h187q112 0 192 -80t80 -192v-643q0 -113 -80 -193q-79 -79 -192 -79h-187q-113 0 -192 79q-80 80 -80 193zM158 252q0 -98 68.5 -167t166.5 -69h187q98 0 166.5 68t68.5 168v643q0 98 -68.5 166.5t-166.5 68.5h-187 q-98 0 -166.5 -68.5t-68.5 -166.5v-643z" />
<glyph unicode="p" horiz-adv-x="993" d="M141 -301v1448h37v-182q404 202 500 202q82 0 138 -57t56 -139v-719q0 -114 -79 -193t-193 -79h-186q-75 0 -138 37t-98 100v-418h-37zM178 252q0 -98 69 -167t167 -69h186q98 0 167 69t69 167v715q0 71 -47.5 117t-114.5 46q-93 0 -496 -206v-672z" />
<glyph unicode="q" horiz-adv-x="983" d="M121 178v719q0 113 80 193q79 79 192 79h187q113 0 192 -79q80 -80 80 -193v-1198h-37v485q-401 -202 -500 -202q-82 0 -138 57t-56 139zM158 182q0 -71 47 -117.5t114 -46.5q94 0 496 207v672q0 98 -68.5 167t-166.5 69h-187q-98 0 -166.5 -69t-68.5 -167v-715z" />
<glyph unicode="r" horiz-adv-x="921" d="M141 0v1147h37v-182q389 202 498 202q82 0 139 -57t57 -139v-207h-36v199q0 72 -47.5 119.5t-112.5 47.5q-48 0 -170 -51q-131 -55 -227 -104l-101 -51v-924h-37z" />
<glyph unicode="s" horiz-adv-x="933" d="M100 252v182h37v-182q0 -98 69 -167t167 -69h188q95 0 166 68q70 70 70 168v67q0 32 -22.5 60.5t-78.5 62.5q-74 47 -100 60q-38 22 -139 73q-234 119 -289 164q-68 56 -68 115v41q0 111 78 192q80 80 195 80h188q116 0 193 -80q80 -80 80 -192v-41h-37v41q0 99 -70 166 q-69 69 -166 69h-188q-98 0 -167 -68.5t-69 -166.5v-39q0 -65 139 -145l203 -105q84 -42 146 -78q57 -31 106 -65q103 -66 103 -141v-70q0 -113 -80 -193q-79 -79 -193 -79h-188q-114 0 -193 79q-80 80 -80 193z" />
<glyph unicode="t" horiz-adv-x="600" d="M18 1110v37h234v295h37v-295h295v-37h-295v-926q0 -72 47 -119t115 -49h14v-36h-14q-82 2 -140.5 61t-58.5 143v926h-234z" />
<glyph unicode="u" horiz-adv-x="1003" d="M131 176v971h37v-965q0 -72 47.5 -119t112.5 -47q45 0 170 52q131 55 227 104l100 51v924h37v-1147h-37v182q-389 -202 -497 -202q-82 0 -139.5 57t-57.5 139z" />
<glyph unicode="v" horiz-adv-x="864" d="M49 1145h37l193 -1077q15 -50 63 -50h178q22 0 39.5 15t22.5 35l196 1077h37l-199 -1094q-5 -27 -31.5 -48t-56.5 -21h-196q-30 0 -56.5 21t-31.5 48z" />
<glyph unicode="w" horiz-adv-x="1558" d="M131 254v893h37v-893q0 -99 68.5 -168.5t166.5 -69.5h115q100 0 172 72t72 176v883h37v-883q0 -107 69 -176q72 -72 174 -72h113q98 0 167 70t69 168v893h36v-893q0 -116 -79 -195q-76 -79 -193 -79h-113q-94 0 -166.5 54t-95.5 142q-25 -88 -97.5 -142t-164.5 -54h-115 q-115 0 -194 79q-78 81 -78 195z" />
<glyph unicode="x" horiz-adv-x="892" d="M47 0l387 606l-338 541h39l318 -508l333 508h41l-354 -541l373 -606h-39l-354 569l-365 -569h-41z" />
<glyph unicode="y" horiz-adv-x="825" d="M39 1145h37l188 -1059q5 -21 23 -36t41 -15h215q4 0 10 20l197 1090h38l-266 -1464h-37l58 317h-226q-30 0 -56.5 21.5t-31.5 48.5z" />
<glyph unicode="z" horiz-adv-x="864" d="M70 0v37l675 1073h-671v37h714v-37l-675 -1073h682v-37h-725z" />
<glyph unicode="{" horiz-adv-x="520" d="M70 778v82q88 0 123.5 52t35.5 192v385q0 251 191 272v-37q-154 -18 -154 -235v-385q0 -145 -37 -204t-123 -64v-33q60 -3 93.5 -27.5t50 -82t16.5 -158.5v-385q0 -218 154 -236v-37q-191 21 -191 273v385q0 140 -35.5 191.5t-123.5 51.5z" />
<glyph unicode="|" horiz-adv-x="360" d="M162 -102v1843h37v-1843h-37z" />
<glyph unicode="}" horiz-adv-x="520" d="M100 -86q154 18 154 236v385q0 101 16.5 158.5t50 82t93.5 27.5v33q-86 5 -123 64t-37 204v385q0 217 -154 235v37q191 -21 191 -272v-385q0 -140 36 -192t124 -52v-82q-88 0 -124 -51.5t-36 -191.5v-385q0 -252 -191 -273v37z" />
<glyph unicode="~" d="M285 1391q51 63 127 63q54 0 141 -37q93 -35 139 -35q63 0 115 58l10 -27q-56 -65 -125 -65q-53 0 -143 34q-87 37 -137 37q-65 0 -117 -55z" />
<glyph horiz-adv-x="1024" />
<glyph unicode="&#xa1;" horiz-adv-x="360" d="M162 -266v1208h37v-1208h-37zM162 1147v217h37v-217h-37z" />
<glyph unicode="&#xa2;" d="M184 475v639q0 116 80 193q79 79 193 79h71v181h37v-181h80q114 0 193 -79q80 -77 80 -193v-153h-37v153q0 96 -70 166t-166 70h-80v-1110h80q96 0 166 67q70 70 70 168v148h37v-148q0 -112 -80 -192t-195 -80h-78v-203h-37v203h-71q-113 0 -193 80t-80 192zM221 475 q0 -98 69 -166.5t167 -68.5h71v1110h-71q-98 0 -168 -70q-68 -71 -68 -166v-639z" />
<glyph unicode="&#xa3;" d="M82 0v37h291q-113 52 -113 176v600h-178v37h178v444q0 123 86 209t209 86h176q123 0 209 -86t86 -209v-196h-37v196q0 107 -76 183q-72 75 -182 75h-176q-107 0 -182 -75q-76 -76 -76 -183v-444h326v-37h-326v-600q0 -71 48 -120.5t114 -55.5h575v-37h-952z" />
<glyph unicode="&#xa4;" d="M111 709v32h112v148h-112v33h112v372q0 123 86 209t209 86h176q123 0 209 -86t86 -209v-258h-37v258q0 108 -75 183q-72 75 -183 75h-176q-109 0 -184 -75q-74 -77 -74 -183v-372h492v-33h-492v-148h492v-32h-492v-435q0 -105 74 -182q76 -76 184 -76h176q110 0 183 76 q75 75 75 182v324h37v-324q0 -122 -86 -208t-209 -86h-176q-123 0 -209 86t-86 208v435h-112z" />
<glyph unicode="&#xa5;" d="M86 1569h37l280 -832q17 -51 64 -51h162q48 0 63 51l285 832h37l-287 -850q-8 -28 -33 -49t-55 -21h-74v-184h377v-33h-377v-147h377v-33h-377v-252h-37v252h-389v33h389v147h-389v33h389v184h-69q-30 0 -56 21.5t-32 48.5z" />
<glyph unicode="&#xa6;" horiz-adv-x="358" d="M162 -102v798h35v-798h-35zM162 942v799h35v-799h-35z" />
<glyph unicode="&#xa7;" horiz-adv-x="993" d="M131 258v178h37v-178q0 -98 68.5 -166.5t166.5 -68.5h187q98 0 166.5 68.5t68.5 166.5v64q0 97 -245 210q-23 11 -66 31.5t-69.5 33.5t-67 33t-66 35.5t-57.5 35.5t-52 37.5t-38 37.5t-26 40t-7 40v41q0 97 57 166q-57 39 -57 108v39q0 113 80 193t192 80h187 q115 0 192 -80q80 -80 80 -193v-41h-37v41q0 98 -68.5 167t-166.5 69h-187q-98 0 -166.5 -69t-68.5 -167v-39q0 -86 244 -202q218 -98 302 -150q150 -95 148 -182v-66q0 -87 -45 -149q45 -51 45 -100v-64q0 -112 -80 -192t-192 -80h-187q-112 0 -192 80t-80 192zM168 856 q0 -48 78 -108q76 -53 178 -101q111 -48 211 -100q108 -54 153 -96q37 52 37 124v62q0 70 -110 137q-115 70 -275 139q-160 72 -225 125q-47 -68 -47 -143v-39z" />
<glyph unicode="&#xa8;" horiz-adv-x="491" d="M94 1356q0 30 29 30q12 0 21.5 -9t9.5 -21q0 -29 -31 -29q-29 0 -29 29zM342 1356q0 12 9.5 21t21.5 9q28 0 28 -30q0 -29 -28 -29q-31 0 -31 29z" />
<glyph unicode="&#xa9;" horiz-adv-x="1239" d="M131 307v529q0 136 115 231q116 96 280 96h187q164 0 280 -96q115 -95 115 -231v-529q0 -138 -115 -233q-113 -94 -280 -94h-187q-167 0 -280 94q-115 95 -115 233zM164 307q0 -124 104 -209q106 -86 258 -86h187q152 0 258 86q104 85 104 209v529q0 127 -106 208 q-106 86 -256 86h-187q-152 0 -258 -86q-104 -85 -104 -208v-529zM260 307v529q0 83 76 141q75 57 190 57h187q113 0 188 -57q78 -60 78 -141v-115h-35v108q0 72 -68 122t-165 50h-183q-97 0 -165 -50t-68 -122v-516q0 -72 68 -122t165 -50h183q97 0 165 50t68 122v105h35 v-111q0 -81 -78 -141q-75 -57 -188 -57h-187q-113 0 -188 57q-78 60 -78 141z" />
<glyph unicode="&#xaa;" horiz-adv-x="798" d="M131 700v31h537v-31h-537zM152 991v66q0 66 32 116t86 70l346 66v112q8 75 -82 112q-85 35 -188 15q-103 -19 -130 -81q-9 -22 -7 -46v-24h-31v24q0 81 66 122.5t170 41.5q103 0 168 -42.5t65 -121.5v-536h-31v102q-288 -115 -346 -115q-49 0 -83.5 34.5t-34.5 84.5z M182 995q0 -41 26.5 -66.5t63.5 -25.5q21 0 113 29l160 59l71 29v256l-331 -62q-46 -18 -74.5 -63t-28.5 -94v-62z" />
<glyph unicode="&#xab;" horiz-adv-x="933" d="M80 489l381 281l26 -20l-360 -261l360 -260l-26 -20zM395 489l381 281l27 -20l-361 -261l361 -260l-27 -20z" />
<glyph unicode="&#xac;" d="M131 662v34h840v-338h-35v304h-805z" />
<glyph unicode="&#xad;" horiz-adv-x="829" d="M121 702v35h588v-35h-588z" />
<glyph unicode="&#xae;" horiz-adv-x="1042" d="M131 850v475q0 126 88 211q89 86 215 86h174q126 0 215 -86q88 -85 88 -211v-475q0 -126 -88 -211q-89 -86 -215 -86h-174q-126 0 -215 86q-88 85 -88 211zM164 850q0 -110 78 -188q79 -76 192 -76h174q115 0 191 76q80 77 80 188v475q0 109 -80 186q-78 78 -191 78h-174 q-111 0 -192 -78q-78 -78 -78 -186v-475zM322 770v655h299q42 0 76 -30t34 -68v-119q0 -70 -63 -96q67 -24 67 -98v-244h-30v244q0 61 -66 82h-287v-326h-30zM352 1128h287q59 24 59 80v113q0 31 -23.5 52.5t-58.5 21.5h-264v-267z" />
<glyph unicode="&#xaf;" horiz-adv-x="651" d="M100 1362v31h451v-31h-451z" />
<glyph unicode="&#xb0;" horiz-adv-x="817" d="M131 1266v49q0 81 57.5 137.5t137.5 56.5h166q80 0 137 -56.5t57 -137.5v-49q0 -80 -57.5 -137.5t-136.5 -57.5h-166q-80 0 -137.5 57.5t-57.5 137.5zM164 1266q0 -68 47 -115t115 -47h166q67 0 114 47t47 115v49q0 68 -47 115t-114 47h-166q-68 0 -115 -47.5t-47 -114.5 v-49z" />
<glyph unicode="&#xb1;" d="M193 330v35h716v-35h-716zM193 825v37h337v316h37v-316h342v-37h-342v-364h-37v364h-337z" />
<glyph unicode="&#xb2;" horiz-adv-x="798" d="M162 737v31q0 64 35 129q35 60 65 90q27 27 92 80q11 11 17 14l69 58q63 50 84 71q30 31 55 78.5t25 87.5v45q0 56 -34 90.5t-89 34.5h-151q-54 0 -89 -34t-36 -89v-6h-33v6q1 65 47.5 110.5t110.5 45.5h151q66 0 111 -46t45 -112v-45q0 -85 -62 -153q-36 -41 -55 -58 q-28 -28 -67 -57l-58 -47q-53 -44 -94 -80q-29 -29 -68 -88q-38 -58 -38 -123h442v-33h-475z" />
<glyph unicode="&#xb3;" horiz-adv-x="718" d="M131 1419v29q0 53 43 91t100 38h162q57 0 100.5 -38t43.5 -91v-127q0 -92 -72 -127q80 -30 80 -131v-205q0 -53 -43.5 -91t-100.5 -38h-161q-57 0 -100.5 38t-43.5 91v189h31v-187q0 -38 33.5 -68t81.5 -30h157q48 0 81.5 30t33.5 68v203q0 85 -82 115h-219v32h219 q2 -1 9.5 2.5t17.5 12t20 21t17.5 32.5t9.5 43v125q0 38 -33.5 68t-81.5 30h-158q-48 0 -81 -30t-33 -68v-27h-31z" />
<glyph unicode="&#xb4;" horiz-adv-x="565" d="M285 1298l204 269h37l-207 -269h-34z" />
<glyph unicode="&#xb6;" horiz-adv-x="1179" d="M121 723v643q0 112 78 193q79 79 194 79h625v-1945h-37v1911h-393v-1911h-37v758h-158q-113 0 -192 79q-80 80 -80 193zM158 723q0 -98 68.5 -167t166.5 -69h158v1117h-158q-98 0 -166.5 -69.5t-68.5 -168.5v-643z" />
<glyph unicode="&#xb7;" horiz-adv-x="321" d="M131 596q0 31 31 31q28 0 28 -31t-28 -31q-31 0 -31 31z" />
<glyph unicode="&#xb8;" horiz-adv-x="802" d="M299 -426l20 25q45 -25 89 -25q81 0 134.5 49t53.5 119q0 68 -48 118t-118 50h-29l17 96h31l-15 -63q81 -1 138 -61t57 -140q0 -86 -62.5 -143.5t-158.5 -57.5q-59 0 -109 33z" />
<glyph unicode="&#xb9;" horiz-adv-x="436" d="M162 1534v33h112v-830h-32v797h-80z" />
<glyph unicode="&#xba;" horiz-adv-x="800" d="M131 700v31h539v-31h-539zM152 1036v385q0 69 47 116.5t116 47.5h168q68 0 116 -47.5t48 -116.5v-385q0 -68 -48.5 -116t-115.5 -48h-168q-69 0 -116 48t-47 116zM184 1038q0 -55 38.5 -94t92.5 -39h168q54 0 92.5 39t38.5 94v383q0 55 -38.5 93t-92.5 38h-168 q-54 0 -92.5 -38.5t-38.5 -92.5v-383z" />
<glyph unicode="&#xbb;" horiz-adv-x="933" d="M131 229l361 260l-361 261l25 20l381 -281l-381 -280zM446 229l361 260l-361 261l25 20l381 -281l-381 -280z" />
<glyph unicode="&#xbc;" horiz-adv-x="1222" d="M156 1534v33h112v-830h-32v797h-80zM190 0l650 1634h37l-650 -1634h-37zM545 195l381 641h127v-611h41v-30h-41v-195h-33v195h-475zM600 225h420v582h-72z" />
<glyph unicode="&#xbd;" horiz-adv-x="1300" d="M156 1534v33h112v-830h-32v797h-80zM190 0l650 1634h37l-650 -1634h-37zM694 0v31q0 132 152 266l41 33l16 14l70 57q59 47 84 72q30 31 55 78.5t25 87.5v45q0 56 -34 90.5t-89 34.5h-152q-54 0 -89 -34t-36 -89v-6h-32v6q1 66 47.5 111t109.5 45h152q66 0 110.5 -46 t44.5 -112v-45q0 -87 -61 -154q-32 -37 -55 -57q-25 -25 -68 -57l-57 -47q-53 -44 -94 -80q-29 -29 -68 -88t-39 -123h442v-33h-475z" />
<glyph unicode="&#xbe;" horiz-adv-x="1388" d="M131 1419v29q0 53 43 91t100 38h162q57 0 100.5 -38t43.5 -91v-127q0 -92 -72 -127q80 -30 80 -131v-205q0 -53 -43.5 -91t-100.5 -38h-161q-57 0 -100.5 38t-43.5 91v189h31v-187q0 -38 33.5 -68t81.5 -30h157q48 0 81.5 30t33.5 68v203q0 85 -82 115h-219v32h219 q2 -1 9.5 2.5t17.5 12t20 21t17.5 32.5t9.5 43v125q0 38 -33.5 68t-81.5 30h-158q-48 0 -81 -30t-33 -68v-27h-31zM401 0l650 1634h34l-647 -1634h-37zM711 195l381 641h125v-611h40v-30h-40v-195h-33v195h-473zM766 225h418v582h-72z" />
<glyph unicode="&#xbf;" horiz-adv-x="948" d="M88 -68v232q0 91 63 147t162 58h11q88 0 143 44.5t55 123.5v374h37v-374q0 -92 -67.5 -148.5t-167.5 -56.5h-11q-84 -2 -136 -46t-52 -122v-232q0 -98 68.5 -166.5t166.5 -68.5h228q98 0 166.5 68.5t68.5 166.5v213h37v-213q0 -112 -80 -192t-192 -80h-228 q-114 0 -194 80q-78 81 -78 192zM522 1094v217h37v-217h-37z" />
<glyph unicode="&#xc0;" horiz-adv-x="1034" d="M39 0l287 1569q6 29 32 49t58 20h202q32 0 58.5 -20t30.5 -49l288 -1569h-37l-88 471h-708l-86 -471h-37zM170 508h694l-192 1042q-5 23 -22 37.5t-40 14.5h-186q-55 0 -64 -52zM307 2058h35l207 -268h-37z" />
<glyph unicode="&#xc1;" horiz-adv-x="1034" d="M39 0l287 1569q6 29 32 49t58 20h202q32 0 58.5 -20t30.5 -49l288 -1569h-37l-88 471h-708l-86 -471h-37zM170 508h694l-192 1042q-5 23 -22 37.5t-40 14.5h-186q-55 0 -64 -52zM500 1790l205 268h36l-206 -268h-35z" />
<glyph unicode="&#xc2;" horiz-adv-x="1034" d="M39 0l287 1569q6 29 32 49t58 20h202q32 0 58.5 -20t30.5 -49l288 -1569h-37l-88 471h-708l-86 -471h-37zM170 508h694l-192 1042q-5 23 -22 37.5t-40 14.5h-186q-55 0 -64 -52zM270 1796l217 266h60l217 -266h-39l-190 234h-35l-193 -234h-37z" />
<glyph unicode="&#xc3;" horiz-adv-x="1034" d="M39 0l287 1569q6 29 32 49t58 20h202q32 0 58.5 -20t30.5 -49l288 -1569h-37l-88 471h-708l-86 -471h-37zM170 508h694l-192 1042q-5 23 -22 37.5t-40 14.5h-186q-55 0 -64 -52zM252 1882q52 64 127 64q54 0 141 -37q93 -35 139 -35q64 0 115 57l10 -26q-57 -66 -125 -66 q-50 0 -143 35q-87 37 -137 37q-64 0 -117 -56z" />
<glyph unicode="&#xc4;" horiz-adv-x="1034" d="M39 0l287 1569q6 29 32 49t58 20h202q32 0 58.5 -20t30.5 -49l288 -1569h-37l-88 471h-708l-86 -471h-37zM170 508h694l-192 1042q-5 23 -22 37.5t-40 14.5h-186q-55 0 -64 -52zM365 1847q0 31 28 31q12 0 21.5 -9.5t9.5 -21.5q0 -28 -31 -28q-28 0 -28 28zM612 1847 q0 12 9.5 21.5t21.5 9.5q29 0 29 -31q0 -28 -29 -28q-31 0 -31 28z" />
<glyph unicode="&#xc5;" horiz-adv-x="1034" d="M39 0l287 1569q6 29 32 49t58 20h202q32 0 58.5 -20t30.5 -49l288 -1569h-37l-88 471h-708l-86 -471h-37zM170 508h694l-192 1042q-5 23 -22 37.5t-40 14.5h-186q-55 0 -64 -52zM318 1945.5q0 81.5 57 141.5q59 59 143 59q82 0 141 -59q60 -60 60 -141.5t-60 -141.5 q-59 -59 -141 -59q-84 0 -143 59q-57 60 -57 141.5zM350 1946q0 -69 49.5 -118.5t118.5 -49.5q68 0 118 49.5t50 118.5t-50 118.5t-118 49.5q-69 0 -118.5 -49.5t-49.5 -118.5z" />
<glyph unicode="&#xc6;" horiz-adv-x="1456" d="M39 0l283 1569q5 27 31.5 48t56.5 21h966v-39h-647v-677h590v-37h-590v-848h645v-37h-682v471h-532l-84 -471h-37zM168 508h524v1094h-274q-23 0 -41 -15.5t-23 -36.5z" />
<glyph unicode="&#xc7;" horiz-adv-x="1054" d="M131 274v1082q0 123 86 209t209 86h215q123 0 209 -86t86 -209v-258h-37v258q0 106 -76 182t-182 76h-215q-106 0 -182 -76t-76 -182v-1082q0 -106 76 -182t182 -76h215q110 0 184 74q74 77 74 184v324h37v-324q0 -122 -86 -208t-209 -86h-102l-9 -37q81 -1 138 -61 t57 -140q0 -86 -62.5 -143.5t-158.5 -57.5q-59 0 -109 33l21 25q45 -25 88 -25q81 0 134.5 49t53.5 119q0 68 -48 118t-118 50h-28l12 70h-84q-123 0 -209 86t-86 208z" />
<glyph unicode="&#xc8;" horiz-adv-x="925" d="M162 0v1638h684v-36h-647v-680h589v-37h-589v-848h645v-37h-682zM285 2058h34l207 -268h-37z" />
<glyph unicode="&#xc9;" horiz-adv-x="925" d="M162 0v1638h684v-36h-647v-680h589v-37h-589v-848h645v-37h-682zM477 1790l205 268h37l-207 -268h-35z" />
<glyph unicode="&#xca;" horiz-adv-x="925" d="M162 0v1638h684v-36h-647v-680h589v-37h-589v-848h645v-37h-682zM250 1796l217 266h59l217 -266h-38l-191 234h-35l-192 -234h-37z" />
<glyph unicode="&#xcb;" horiz-adv-x="925" d="M162 0v1638h684v-36h-647v-680h589v-37h-589v-848h645v-37h-682zM342 1847q0 31 29 31q12 0 21 -9.5t9 -21.5q0 -28 -30 -28q-29 0 -29 28zM590 1847q0 12 9.5 21.5t21.5 9.5q28 0 28 -31q0 -28 -28 -28q-31 0 -31 28z" />
<glyph unicode="&#xcc;" horiz-adv-x="380" d="M-20 2058h34l207 -268h-37zM172 0v1638h37v-1638h-37z" />
<glyph unicode="&#xcd;" horiz-adv-x="380" d="M172 0v1638h37v-1638h-37zM172 1790l205 268h37l-207 -268h-35z" />
<glyph unicode="&#xce;" horiz-adv-x="380" d="M-55 1796l217 266h59l217 -266h-39l-190 234h-35l-192 -234h-37zM172 0v1638h37v-1638h-37z" />
<glyph unicode="&#xcf;" horiz-adv-x="380" d="M37 1847q0 31 29 31q12 0 21 -9.5t9 -21.5q0 -28 -30 -28q-29 0 -29 28zM172 0v1638h37v-1638h-37zM285 1847q0 12 9 21.5t21 9.5q29 0 29 -31q0 -28 -29 -28q-30 0 -30 28z" />
<glyph unicode="&#xd0;" horiz-adv-x="1083" d="M47 868v35h103v735h509q127 0 209 -82q86 -80 86 -200v-1061q0 -123 -86 -209t-209 -86h-509v868h-103zM186 37h473q107 0 183 76t76 182v1061q0 106 -76 176q-73 70 -183 70h-473v-699h428v-35h-428v-831z" />
<glyph unicode="&#xd1;" horiz-adv-x="1116" d="M162 0v1638h98l625 -1601h33v1601h36v-1638h-96l-625 1602h-34v-1602h-37zM293 1882q52 64 127 64q54 0 141 -37q93 -35 139 -35q64 0 115 57l10 -26q-57 -66 -125 -66q-50 0 -143 35q-87 37 -137 37q-64 0 -117 -56z" />
<glyph unicode="&#xd2;" horiz-adv-x="1064" d="M131 274v1082q0 123 86 209t209 86h215q123 0 209 -86t86 -209v-1082q0 -122 -86 -208t-209 -86h-215q-123 0 -209 86t-86 208zM168 274q0 -106 76 -182t182 -76h215q106 0 182 76t76 182v1082q0 106 -76 182t-182 76h-215q-106 0 -182 -76t-76 -182v-1082zM322 2058h34 l207 -268h-37z" />
<glyph unicode="&#xd3;" horiz-adv-x="1064" d="M131 274v1082q0 123 86 209t209 86h215q123 0 209 -86t86 -209v-1082q0 -122 -86 -208t-209 -86h-215q-123 0 -209 86t-86 208zM168 274q0 -106 76 -182t182 -76h215q106 0 182 76t76 182v1082q0 106 -76 182t-182 76h-215q-106 0 -182 -76t-76 -182v-1082zM516 1790 l205 268h37l-207 -268h-35z" />
<glyph unicode="&#xd4;" horiz-adv-x="1064" d="M131 274v1082q0 123 86 209t209 86h215q123 0 209 -86t86 -209v-1082q0 -122 -86 -208t-209 -86h-215q-123 0 -209 86t-86 208zM168 274q0 -106 76 -182t182 -76h215q106 0 182 76t76 182v1082q0 106 -76 182t-182 76h-215q-106 0 -182 -76t-76 -182v-1082zM287 1796 l217 266h59l217 -266h-39l-190 234h-35l-192 -234h-37z" />
<glyph unicode="&#xd5;" horiz-adv-x="1064" d="M131 274v1082q0 123 86 209t209 86h215q123 0 209 -86t86 -209v-1082q0 -122 -86 -208t-209 -86h-215q-123 0 -209 86t-86 208zM168 274q0 -106 76 -182t182 -76h215q106 0 182 76t76 182v1082q0 106 -76 182t-182 76h-215q-106 0 -182 -76t-76 -182v-1082zM268 1882 q52 64 127 64q55 0 142 -37q93 -35 139 -35q64 0 115 57l10 -26q-57 -66 -125 -66q-51 0 -144 35q-87 37 -137 37q-63 0 -116 -56z" />
<glyph unicode="&#xd6;" horiz-adv-x="1064" d="M131 274v1082q0 123 86 209t209 86h215q123 0 209 -86t86 -209v-1082q0 -122 -86 -208t-209 -86h-215q-123 0 -209 86t-86 208zM168 274q0 -106 76 -182t182 -76h215q106 0 182 76t76 182v1082q0 106 -76 182t-182 76h-215q-106 0 -182 -76t-76 -182v-1082zM379 1847 q0 31 29 31q12 0 21 -9.5t9 -21.5q0 -28 -30 -28q-29 0 -29 28zM627 1847q0 12 9 21.5t21 9.5q29 0 29 -31q0 -28 -29 -28q-30 0 -30 28z" />
<glyph unicode="&#xd7;" d="M274 457l258 256l-239 241l24 25l240 -240l225 226l27 -25l-227 -227l243 -242l-24 -27l-244 244l-258 -258z" />
<glyph unicode="&#xd8;" horiz-adv-x="1026" d="M111 274v1082q0 123 86 209t209 86h215q95 0 172 -56l63 166h35l-72 -186q96 -87 96 -219v-1082q0 -122 -86 -208t-208 -86h-215q-105 0 -181 61l-63 -164h-37l74 186q-88 88 -88 211zM147 274q0 -100 66 -172l565 1459q-71 53 -157 53h-215q-107 0 -183 -76t-76 -182 v-1082zM240 76q72 -60 166 -60h215q106 0 182 76t76 182v1082q0 106 -74 180z" />
<glyph unicode="&#xd9;" horiz-adv-x="1085" d="M139 274v1364h37v-1364q0 -106 76 -182t182 -76h215q109 0 182 76q76 76 76 182v1364h37v-1364q0 -122 -86 -208t-209 -86h-215q-123 0 -209 86t-86 208zM332 2058h35l206 -268h-36z" />
<glyph unicode="&#xda;" horiz-adv-x="1085" d="M139 274v1364h37v-1364q0 -106 76 -182t182 -76h215q109 0 182 76q76 76 76 182v1364h37v-1364q0 -122 -86 -208t-209 -86h-215q-123 0 -209 86t-86 208zM524 1790l205 268h37l-207 -268h-35z" />
<glyph unicode="&#xdb;" horiz-adv-x="1085" d="M139 274v1364h37v-1364q0 -106 76 -182t182 -76h215q109 0 182 76q76 76 76 182v1364h37v-1364q0 -122 -86 -208t-209 -86h-215q-123 0 -209 86t-86 208zM297 1796l217 266h59l218 -266h-39l-191 234h-35l-192 -234h-37z" />
<glyph unicode="&#xdc;" horiz-adv-x="1085" d="M139 274v1364h37v-1364q0 -106 76 -182t182 -76h215q109 0 182 76q76 76 76 182v1364h37v-1364q0 -122 -86 -208t-209 -86h-215q-123 0 -209 86t-86 208zM389 1847q0 31 29 31q12 0 21.5 -9.5t9.5 -21.5q0 -28 -31 -28q-29 0 -29 28zM637 1847q0 12 9.5 21.5t21.5 9.5 q28 0 28 -31q0 -28 -28 -28q-31 0 -31 28z" />
<glyph unicode="&#xdd;" horiz-adv-x="1036" d="M39 1638h37l280 -1093q5 -19 22.5 -34t39.5 -15h196q23 0 40 14t22 35l287 1093h36l-288 -1110q-5 -27 -31.5 -48t-58.5 -21h-89v-459h-36v459h-84q-31 0 -58 21.5t-32 47.5zM500 1790l205 268h36l-206 -268h-35z" />
<glyph unicode="&#xde;" horiz-adv-x="1032" d="M162 0v1618h37v-303h465q126 0 208 -82q86 -80 86 -201v-360q0 -123 -86 -209t-208 -86h-465v-377h-37zM199 414h465q107 0 182 75q76 76 76 183v360q0 106 -76 176q-73 70 -182 70h-465v-864z" />
<glyph unicode="&#xdf;" horiz-adv-x="1046" d="M25 -281h8q69 2 116.5 49t47.5 119v1452q0 120 69 184t193 64h176q129 0 202.5 -64t73.5 -184v-239q0 -77 -43.5 -144t-113.5 -98q77 -30 124.5 -96.5t47.5 -149.5v-387q0 -116 -79.5 -180.5t-211.5 -64.5h-172v36h170q116 0 186 54.5t70 154.5v387q0 78 -46.5 140.5 t-121.5 87.5h-291v37h291q69 30 111 89.5t42 133.5v239q0 101 -63.5 156t-175.5 55h-176q-109 0 -167.5 -53.5t-58.5 -157.5v-1452q0 -85 -56.5 -144t-141.5 -60h-10v36z" />
<glyph unicode="&#xe0;" horiz-adv-x="948" d="M86 176v109q0 203 203 280l491 146v184q0 98 -67.5 165.5t-165.5 69.5h-141q-99 0 -168.5 -68.5t-69.5 -166.5v-41h-37v41q0 115 80 192q80 80 195 80h141q114 -3 190 -82q80 -77 80 -190v-895h-37v182q-389 -202 -497 -202q-82 0 -139.5 57t-57.5 139zM123 184 q0 -72 48.5 -120t113.5 -48q46 0 168 52q131 55 227 104l100 51v449l-475 -137q-86 -31 -134 -97.5t-48 -156.5v-97zM266 1567h35l207 -269h-37z" />
<glyph unicode="&#xe1;" horiz-adv-x="948" d="M86 176v109q0 203 203 280l491 146v184q0 98 -67.5 165.5t-165.5 69.5h-141q-99 0 -168.5 -68.5t-69.5 -166.5v-41h-37v41q0 115 80 192q80 80 195 80h141q114 -3 190 -82q80 -77 80 -190v-895h-37v182q-389 -202 -497 -202q-82 0 -139.5 57t-57.5 139zM123 184 q0 -72 48.5 -120t113.5 -48q46 0 168 52q131 55 227 104l100 51v449l-475 -137q-86 -31 -134 -97.5t-48 -156.5v-97zM461 1298l205 269h36l-206 -269h-35z" />
<glyph unicode="&#xe2;" horiz-adv-x="948" d="M86 176v109q0 203 203 280l491 146v184q0 98 -67.5 165.5t-165.5 69.5h-141q-99 0 -168.5 -68.5t-69.5 -166.5v-41h-37v41q0 115 80 192q80 80 195 80h141q114 -3 190 -82q80 -77 80 -190v-895h-37v182q-389 -202 -497 -202q-82 0 -139.5 57t-57.5 139zM123 184 q0 -72 48.5 -120t113.5 -48q46 0 168 52q131 55 227 104l100 51v449l-475 -137q-86 -31 -134 -97.5t-48 -156.5v-97zM231 1305l218 266h59l217 -266h-39l-190 233h-35l-193 -233h-37z" />
<glyph unicode="&#xe3;" horiz-adv-x="948" d="M86 176v109q0 203 203 280l491 146v184q0 98 -67.5 165.5t-165.5 69.5h-141q-99 0 -168.5 -68.5t-69.5 -166.5v-41h-37v41q0 115 80 192q80 80 195 80h141q114 -3 190 -82q80 -77 80 -190v-895h-37v182q-389 -202 -497 -202q-82 0 -139.5 57t-57.5 139zM123 184 q0 -72 48.5 -120t113.5 -48q46 0 168 52q131 55 227 104l100 51v449l-475 -137q-86 -31 -134 -97.5t-48 -156.5v-97zM213 1391q51 63 127 63q54 0 141 -37q93 -35 140 -35q62 0 114 58l10 -27q-56 -65 -124 -65q-54 0 -144 34q-87 37 -137 37q-65 0 -117 -55z" />
<glyph unicode="&#xe4;" horiz-adv-x="948" d="M86 176v109q0 203 203 280l491 146v184q0 98 -67.5 165.5t-165.5 69.5h-141q-99 0 -168.5 -68.5t-69.5 -166.5v-41h-37v41q0 115 80 192q80 80 195 80h141q114 -3 190 -82q80 -77 80 -190v-895h-37v182q-389 -202 -497 -202q-82 0 -139.5 57t-57.5 139zM123 184 q0 -72 48.5 -120t113.5 -48q46 0 168 52q131 55 227 104l100 51v449l-475 -137q-86 -31 -134 -97.5t-48 -156.5v-97zM326 1356q0 30 28 30q12 0 21.5 -9t9.5 -21q0 -29 -31 -29q-28 0 -28 29zM573 1356q0 12 9.5 21t21.5 9q29 0 29 -30q0 -29 -29 -29q-31 0 -31 29z" />
<glyph unicode="&#xe5;" horiz-adv-x="948" d="M86 176v109q0 203 203 280l491 146v184q0 98 -67.5 165.5t-165.5 69.5h-141q-99 0 -168.5 -68.5t-69.5 -166.5v-41h-37v41q0 115 80 192q80 80 195 80h141q114 -3 190 -82q80 -77 80 -190v-895h-37v182q-389 -202 -497 -202q-82 0 -139.5 57t-57.5 139zM123 184 q0 -72 48.5 -120t113.5 -48q46 0 168 52q131 55 227 104l100 51v449l-475 -137q-86 -31 -134 -97.5t-48 -156.5v-97zM278 1454q0 81 60 141t141.5 60t141.5 -60t60 -141t-60 -141t-141.5 -60t-141.5 60t-60 141zM311 1454q0 -69 49.5 -118.5t118.5 -49.5q68 0 118 49.5 t50 118.5t-50 118.5t-118 49.5q-69 0 -118.5 -49.5t-49.5 -118.5z" />
<glyph unicode="&#xe6;" horiz-adv-x="1599" d="M88 176v109q0 203 203 280l491 146v184q0 98 -67.5 165.5t-165.5 69.5h-141q-99 0 -168.5 -68.5t-69.5 -166.5v-41h-37v41q0 115 80 192q80 80 195 80h141q86 -1 154.5 -49.5t97.5 -126.5q31 79 100 127.5t154 48.5h188q113 0 193 -80t80 -192v-238h-697v-411 q0 -95 70 -162q71 -68 166 -68h188q99 0 166 70q70 70 70 170v147h37v-147q0 -112 -80 -195q-78 -81 -193 -81h-188q-93 0 -166.5 58.5t-97.5 147.5l-9 -4q-389 -202 -497 -202q-82 0 -139.5 57t-57.5 139zM125 184q0 -72 47.5 -120t112.5 -48q45 0 170 52q120 50 225 104 l102 51v449l-475 -137q-86 -31 -134 -97.5t-48 -156.5v-97zM819 694h660v201q0 98 -69 166.5t-167 68.5h-188q-96 0 -166 -67t-70 -164v-205z" />
<glyph unicode="&#xe7;" horiz-adv-x="913" d="M121 252v643q0 111 78 192q80 80 194 80h187q112 0 192 -80t80 -192v-154h-37v154q0 98 -68.5 166.5t-166.5 68.5h-187q-98 0 -166.5 -68.5t-68.5 -166.5v-643q0 -98 68.5 -167t166.5 -69h187q98 0 166.5 69t68.5 167v147h37v-147q0 -113 -80 -193q-79 -79 -192 -79h-97 l-8 -37q81 -1 138 -61t57 -140q0 -86 -62.5 -143.5t-158.5 -57.5q-59 0 -109 33l20 25q45 -25 89 -25q81 0 134.5 49t53.5 119q0 68 -48 118t-118 50h-29l13 70h-62q-113 0 -192 79q-80 80 -80 193z" />
<glyph unicode="&#xe8;" horiz-adv-x="937" d="M121 252v643q0 111 78 192q80 80 194 80h187q112 0 192 -80t80 -192v-238h-694v-405q0 -98 68.5 -167t166.5 -69h187q98 0 166.5 69t68.5 167v147h37v-147q0 -113 -80 -193q-79 -79 -192 -79h-187q-113 0 -192 79q-80 80 -80 193zM158 694h657v201q0 98 -68.5 166.5 t-166.5 68.5h-187q-98 0 -166.5 -68.5t-68.5 -166.5v-201zM260 1567h35l207 -269h-37z" />
<glyph unicode="&#xe9;" horiz-adv-x="937" d="M121 252v643q0 111 78 192q80 80 194 80h187q112 0 192 -80t80 -192v-238h-694v-405q0 -98 68.5 -167t166.5 -69h187q98 0 166.5 69t68.5 167v147h37v-147q0 -113 -80 -193q-79 -79 -192 -79h-187q-113 0 -192 79q-80 80 -80 193zM158 694h657v201q0 98 -68.5 166.5 t-166.5 68.5h-187q-98 0 -166.5 -68.5t-68.5 -166.5v-201zM455 1298l204 269h37l-207 -269h-34z" />
<glyph unicode="&#xea;" horiz-adv-x="937" d="M121 252v643q0 111 78 192q80 80 194 80h187q112 0 192 -80t80 -192v-238h-694v-405q0 -98 68.5 -167t166.5 -69h187q98 0 166.5 69t68.5 167v147h37v-147q0 -113 -80 -193q-79 -79 -192 -79h-187q-113 0 -192 79q-80 80 -80 193zM158 694h657v201q0 98 -68.5 166.5 t-166.5 68.5h-187q-98 0 -166.5 -68.5t-68.5 -166.5v-201zM225 1305l217 266h60l217 -266h-39l-191 233h-34l-193 -233h-37z" />
<glyph unicode="&#xeb;" horiz-adv-x="937" d="M121 252v643q0 111 78 192q80 80 194 80h187q112 0 192 -80t80 -192v-238h-694v-405q0 -98 68.5 -167t166.5 -69h187q98 0 166.5 69t68.5 167v147h37v-147q0 -113 -80 -193q-79 -79 -192 -79h-187q-113 0 -192 79q-80 80 -80 193zM158 694h657v201q0 98 -68.5 166.5 t-166.5 68.5h-187q-98 0 -166.5 -68.5t-68.5 -166.5v-201zM319 1356q0 30 29 30q12 0 21.5 -9t9.5 -21q0 -29 -31 -29q-29 0 -29 29zM567 1356q0 12 9.5 21t21.5 9q29 0 29 -30q0 -29 -29 -29q-31 0 -31 29z" />
<glyph unicode="&#xec;" horiz-adv-x="413" d="M-43 1567h35l207 -269h-37zM152 184v963h36v-963q0 -72 47 -119t115 -49h15v-36h-15q-82 2 -140 61t-58 143z" />
<glyph unicode="&#xed;" horiz-adv-x="413" d="M152 184v963h36v-963q0 -72 47 -119t115 -49h15v-36h-15q-82 2 -140 61t-58 143zM152 1298l204 269h37l-207 -269h-34z" />
<glyph unicode="&#xee;" horiz-adv-x="413" d="M-78 1305l217 266h60l217 -266h-39l-191 233h-34l-193 -233h-37zM152 184v963h36v-963q0 -72 47 -119t115 -49h15v-36h-15q-82 2 -140 61t-58 143z" />
<glyph unicode="&#xef;" horiz-adv-x="413" d="M16 1356q0 30 29 30q12 0 21.5 -9t9.5 -21q0 -29 -31 -29q-29 0 -29 29zM152 184v963h36v-963q0 -72 47 -119t115 -49h15v-36h-15q-82 2 -140 61t-58 143zM264 1356q0 12 9.5 21t21.5 9q29 0 29 -30q0 -29 -29 -29q-31 0 -31 29z" />
<glyph unicode="&#xf0;" horiz-adv-x="983" d="M121 252v364q0 113 80 193t192 80h187q77 0 139.5 -39.5t95.5 -106.5v324h-301v33h301v262q0 87 -61.5 149t-151.5 62h-188q-108 0 -181 -76q-73 -73 -73 -180v-162h-37v162q0 123 84 207q86 86 207 86h190q103 0 174 -74q74 -71 74 -174v-262h106v-33h-106v-815 q0 -113 -80 -193q-79 -79 -192 -79h-187q-113 0 -192 79q-80 80 -80 193zM158 252q0 -96 67 -166q70 -70 168 -70h187q98 0 165 70q70 70 70 166v375q0 95 -70 159q-72 66 -165 66h-187q-98 0 -166.5 -69t-68.5 -167v-364z" />
<glyph unicode="&#xf1;" horiz-adv-x="1003" d="M141 0v1147h37v-182q389 202 498 202q82 0 139 -57t57 -139v-971h-36v965q0 72 -47.5 118.5t-112.5 46.5q-48 0 -170 -51q-131 -55 -227 -104l-101 -51v-924h-37zM238 1391q51 63 127 63q54 0 141 -37q93 -35 139 -35q63 0 115 58l10 -27q-56 -65 -125 -65q-53 0 -143 34 q-87 37 -137 37q-65 0 -117 -55z" />
<glyph unicode="&#xf2;" horiz-adv-x="972" d="M121 252v643q0 111 78 192q80 80 194 80h187q112 0 192 -80t80 -192v-643q0 -113 -80 -193q-79 -79 -192 -79h-187q-113 0 -192 79q-80 80 -80 193zM158 252q0 -98 68.5 -167t166.5 -69h187q98 0 166.5 68t68.5 168v643q0 98 -68.5 166.5t-166.5 68.5h-187 q-98 0 -166.5 -68.5t-68.5 -166.5v-643zM274 1567h35l207 -269h-37z" />
<glyph unicode="&#xf3;" horiz-adv-x="972" d="M121 252v643q0 111 78 192q80 80 194 80h187q112 0 192 -80t80 -192v-643q0 -113 -80 -193q-79 -79 -192 -79h-187q-113 0 -192 79q-80 80 -80 193zM158 252q0 -98 68.5 -167t166.5 -69h187q98 0 166.5 68t68.5 168v643q0 98 -68.5 166.5t-166.5 68.5h-187 q-98 0 -166.5 -68.5t-68.5 -166.5v-643zM469 1298l205 269h37l-207 -269h-35z" />
<glyph unicode="&#xf4;" horiz-adv-x="972" d="M121 252v643q0 111 78 192q80 80 194 80h187q112 0 192 -80t80 -192v-643q0 -113 -80 -193q-79 -79 -192 -79h-187q-113 0 -192 79q-80 80 -80 193zM158 252q0 -98 68.5 -167t166.5 -69h187q98 0 166.5 68t68.5 168v643q0 98 -68.5 166.5t-166.5 68.5h-187 q-98 0 -166.5 -68.5t-68.5 -166.5v-643zM240 1305l217 266h59l217 -266h-39l-190 233h-35l-193 -233h-36z" />
<glyph unicode="&#xf5;" horiz-adv-x="972" d="M121 252v643q0 111 78 192q80 80 194 80h187q112 0 192 -80t80 -192v-643q0 -113 -80 -193q-79 -79 -192 -79h-187q-113 0 -192 79q-80 80 -80 193zM158 252q0 -98 68.5 -167t166.5 -69h187q98 0 166.5 68t68.5 168v643q0 98 -68.5 166.5t-166.5 68.5h-187 q-98 0 -166.5 -68.5t-68.5 -166.5v-643zM221 1391q51 63 127 63q54 0 141 -37q93 -35 140 -35q62 0 114 58l11 -27q-56 -65 -125 -65q-54 0 -144 34q-87 37 -137 37q-65 0 -117 -55z" />
<glyph unicode="&#xf6;" horiz-adv-x="972" d="M121 252v643q0 111 78 192q80 80 194 80h187q112 0 192 -80t80 -192v-643q0 -113 -80 -193q-79 -79 -192 -79h-187q-113 0 -192 79q-80 80 -80 193zM158 252q0 -98 68.5 -167t166.5 -69h187q98 0 166.5 68t68.5 168v643q0 98 -68.5 166.5t-166.5 68.5h-187 q-98 0 -166.5 -68.5t-68.5 -166.5v-643zM334 1356q0 30 28 30q12 0 21.5 -9t9.5 -21q0 -29 -31 -29q-28 0 -28 29zM582 1356q0 12 9 21t21 9q29 0 29 -30q0 -29 -29 -29q-30 0 -30 29z" />
<glyph unicode="&#xf7;" d="M193 702v35h716v-35h-716zM528 492q6 6 13 8.5t13 1t12 -5t9.5 -9.5t5 -12t-1 -13t-8.5 -13q-20 -20 -41.5 1.5t-1.5 41.5zM528 991q10 10 23 9.5t20.5 -9t9 -20.5t-9.5 -23q-20 -20 -41.5 1.5t-1.5 41.5z" />
<glyph unicode="&#xf8;" horiz-adv-x="976" d="M125 252v643q0 111 78 192q80 80 194 80h187q96 0 166 -55l49 96h37l-60 -118q80 -80 80 -195v-643q0 -113 -80 -193q-79 -79 -192 -79h-187q-102 0 -172 61l-49 -96h-37l62 118q-76 79 -76 189zM162 252q0 -88 55 -152l514 979q-60 51 -147 51h-187q-98 0 -166.5 -68.5 t-68.5 -166.5v-643zM242 74q67 -58 155 -58h187q98 0 166.5 68t68.5 168v643q0 96 -61 160z" />
<glyph unicode="&#xf9;" horiz-adv-x="1003" d="M131 176v971h37v-965q0 -72 47.5 -119t112.5 -47q45 0 170 52q131 55 227 104l100 51v924h37v-1147h-37v182q-389 -202 -497 -202q-82 0 -139.5 57t-57.5 139zM291 1567h35l206 -269h-36z" />
<glyph unicode="&#xfa;" horiz-adv-x="1003" d="M131 176v971h37v-965q0 -72 47.5 -119t112.5 -47q45 0 170 52q131 55 227 104l100 51v924h37v-1147h-37v182q-389 -202 -497 -202q-82 0 -139.5 57t-57.5 139zM485 1298l205 269h37l-207 -269h-35z" />
<glyph unicode="&#xfb;" horiz-adv-x="1003" d="M131 176v971h37v-965q0 -72 47.5 -119t112.5 -47q45 0 170 52q131 55 227 104l100 51v924h37v-1147h-37v182q-389 -202 -497 -202q-82 0 -139.5 57t-57.5 139zM256 1305l217 266h59l218 -266h-39l-191 233h-35l-192 -233h-37z" />
<glyph unicode="&#xfc;" horiz-adv-x="1003" d="M131 176v971h37v-965q0 -72 47.5 -119t112.5 -47q45 0 170 52q131 55 227 104l100 51v924h37v-1147h-37v182q-389 -202 -497 -202q-82 0 -139.5 57t-57.5 139zM350 1356q0 30 29 30q12 0 21.5 -9t9.5 -21q0 -29 -31 -29q-29 0 -29 29zM598 1356q0 12 9.5 21t21.5 9 q28 0 28 -30q0 -29 -28 -29q-31 0 -31 29z" />
<glyph unicode="&#xfd;" horiz-adv-x="825" d="M39 1145h37l188 -1059q5 -21 23 -36t41 -15h215q4 0 10 20l197 1090h38l-266 -1464h-37l58 317h-226q-30 0 -56.5 21.5t-31.5 48.5zM395 1298l205 269h37l-207 -269h-35z" />
<glyph unicode="&#xfe;" horiz-adv-x="993" d="M141 -301v1868h37v-602q404 202 500 202q82 0 138 -57t56 -139v-719q0 -114 -79 -193t-193 -79h-186q-75 0 -138 37t-98 100v-418h-37zM178 252q0 -98 69 -167t167 -69h186q98 0 167 69t69 167v715q0 71 -47.5 117t-114.5 46q-93 0 -496 -206v-672z" />
<glyph unicode="&#xff;" horiz-adv-x="825" d="M39 1145h37l188 -1059q5 -21 23 -36t41 -15h215q4 0 10 20l197 1090h38l-266 -1464h-37l58 317h-226q-30 0 -56.5 21.5t-31.5 48.5zM260 1356q0 30 29 30q12 0 21 -9t9 -21q0 -29 -30 -29q-29 0 -29 29zM508 1356q0 12 9.5 21t21.5 9q28 0 28 -30q0 -29 -28 -29 q-31 0 -31 29z" />
<glyph unicode="&#x152;" horiz-adv-x="1654" d="M131 274v1082q0 123 86 209t209 86h207q84 0 152.5 -42.5t105.5 -115.5v145h684v-36h-647v-680h590l-2 -35h-588v-850h645v-37h-682v137q-37 -73 -105.5 -115t-152.5 -42h-207q-123 0 -209 86t-86 208zM168 274q0 -106 76 -182t182 -76h207q102 0 180 72q78 75 78 176 v1092q0 106 -76 182q-73 76 -182 76h-207q-106 0 -182 -76t-76 -182v-1082z" />
<glyph unicode="&#x153;" horiz-adv-x="1632" d="M121 252v643q0 111 78 192q80 80 194 80h187q87 0 155.5 -48.5t98.5 -127.5q31 79 99.5 127.5t153.5 48.5h189q112 0 192 -80t80 -192v-236h-696v-407q0 -96 70 -166t165 -70h189q98 0 166.5 69t68.5 167v147h37v-147q0 -113 -80 -193q-79 -79 -192 -79h-189 q-86 0 -155 48t-98 128q-29 -80 -98 -128t-156 -48h-187q-113 0 -192 79q-80 80 -80 193zM158 252q0 -98 68.5 -167t166.5 -69h187q98 0 166.5 68t68.5 166v655q0 94 -70 158q-70 67 -165 67h-187q-98 0 -166.5 -68.5t-68.5 -166.5v-643zM852 696h659v199q0 98 -68.5 166.5 t-166.5 68.5h-189q-94 0 -165 -65q-70 -64 -70 -160v-209z" />
<glyph unicode="&#x178;" horiz-adv-x="1036" d="M39 1638h37l280 -1093q5 -19 22.5 -34t39.5 -15h196q23 0 40 14t22 35l287 1093h36l-288 -1110q-5 -27 -31.5 -48t-58.5 -21h-89v-459h-36v459h-84q-31 0 -58 21.5t-32 47.5zM365 1847q0 31 28 31q12 0 21.5 -9.5t9.5 -21.5q0 -28 -31 -28q-28 0 -28 28zM612 1847 q0 12 9.5 21.5t21.5 9.5q29 0 29 -31q0 -28 -29 -28q-31 0 -31 28z" />
<glyph unicode="&#x2c6;" horiz-adv-x="636" d="M82 1305l217 266h59l217 -266h-38l-191 233h-35l-192 -233h-37z" />
<glyph unicode="&#x2dc;" horiz-adv-x="665" d="M68 1391q51 63 127 63q54 0 141 -37q93 -35 139 -35q63 0 115 58l10 -27q-56 -65 -125 -65q-53 0 -143 34q-87 37 -137 37q-65 0 -117 -55z" />
<glyph unicode="&#x2000;" horiz-adv-x="1073" />
<glyph unicode="&#x2001;" horiz-adv-x="2146" />
<glyph unicode="&#x2002;" horiz-adv-x="1073" />
<glyph unicode="&#x2003;" horiz-adv-x="2146" />
<glyph unicode="&#x2004;" horiz-adv-x="715" />
<glyph unicode="&#x2005;" horiz-adv-x="536" />
<glyph unicode="&#x2006;" horiz-adv-x="357" />
<glyph unicode="&#x2007;" horiz-adv-x="357" />
<glyph unicode="&#x2008;" horiz-adv-x="268" />
<glyph unicode="&#x2009;" horiz-adv-x="429" />
<glyph unicode="&#x200a;" horiz-adv-x="119" />
<glyph unicode="&#x2010;" horiz-adv-x="829" d="M121 702v35h588v-35h-588z" />
<glyph unicode="&#x2011;" horiz-adv-x="829" d="M121 702v35h588v-35h-588z" />
<glyph unicode="&#x2012;" horiz-adv-x="829" d="M121 702v35h588v-35h-588z" />
<glyph unicode="&#x2013;" horiz-adv-x="768" d="M18 702v35h732v-35h-732z" />
<glyph unicode="&#x2014;" horiz-adv-x="1337" d="M18 702v35h1301v-35h-1301z" />
<glyph unicode="&#x2018;" horiz-adv-x="389" d="M121 1399q0 39 12 69l62 168l30 -10l-61 -168q-10 -33 -10 -57q0 -55 30.5 -99.5t83.5 -62.5l-16 -25q-64 22 -97.5 72.5t-33.5 112.5z" />
<glyph unicode="&#x2019;" horiz-adv-x="389" d="M121 1612l16 24q64 -23 97.5 -72.5t33.5 -111.5q0 -40 -12 -70l-61 -168l-31 11l61 168q11 37 11 57q0 55 -31 99.5t-84 62.5z" />
<glyph unicode="&#x201a;" horiz-adv-x="389" d="M121 78l16 24q64 -23 97.5 -72.5t33.5 -111.5q0 -40 -12 -70l-61 -167l-31 10l61 168q11 37 11 57q0 55 -31 99.5t-84 62.5z" />
<glyph unicode="&#x201c;" horiz-adv-x="600" d="M121 1399q0 39 12 69l62 168l30 -10l-61 -168q-10 -33 -10 -57q0 -55 30.5 -99.5t83.5 -62.5l-16 -25q-64 22 -97.5 72.5t-33.5 112.5zM332 1399q0 39 12 69l62 168l30 -10l-61 -168q-10 -33 -10 -57q0 -55 30.5 -99.5t83.5 -62.5l-16 -25q-64 22 -97.5 72.5t-33.5 112.5 z" />
<glyph unicode="&#x201d;" horiz-adv-x="600" d="M121 1612l16 24q64 -23 97.5 -72.5t33.5 -111.5q0 -40 -12 -70l-61 -168l-31 11l61 168q11 37 11 57q0 55 -31 99.5t-84 62.5zM332 1612l16 24q64 -23 97.5 -72.5t33.5 -111.5q0 -40 -12 -70l-61 -168l-31 11l61 168q10 33 10 57q0 55 -30.5 99.5t-83.5 62.5z" />
<glyph unicode="&#x201e;" horiz-adv-x="600" d="M121 78l16 24q64 -23 97.5 -72.5t33.5 -111.5q0 -40 -12 -70l-61 -167l-31 10l61 168q11 37 11 57q0 55 -31 99.5t-84 62.5zM332 78l16 24q64 -23 97.5 -72.5t33.5 -111.5q0 -40 -12 -70l-61 -167l-31 10l61 168q10 33 10 57q0 55 -30.5 99.5t-83.5 62.5z" />
<glyph unicode="&#x2022;" horiz-adv-x="503" d="M131 711q0 49 35 84q37 37 86 37t84 -37q37 -35 37 -84t-37 -86q-35 -35 -84 -35t-86 35q-35 37 -35 86z" />
<glyph unicode="&#x2026;" horiz-adv-x="944" d="M131 31q0 30 31 30q28 0 28 -30q0 -31 -28 -31q-31 0 -31 31zM442 31q0 30 31 30q29 0 29 -30q0 -31 -29 -31q-31 0 -31 31zM754 31q0 30 30 30q29 0 29 -30q0 -31 -29 -31q-30 0 -30 31z" />
<glyph unicode="&#x202f;" horiz-adv-x="429" />
<glyph unicode="&#x2039;" horiz-adv-x="618" d="M80 489l381 281l26 -20l-360 -261l360 -260l-26 -20z" />
<glyph unicode="&#x203a;" horiz-adv-x="618" d="M131 229l361 260l-361 261l25 20l381 -281l-381 -280z" />
<glyph unicode="&#x205f;" horiz-adv-x="536" />
<glyph unicode="&#x20ac;" d="M111 709v32h112v148h-112v33h112v372q0 123 86 209t209 86h176q123 0 209 -86t86 -209v-258h-37v258q0 108 -75 183q-72 75 -183 75h-176q-109 0 -184 -75q-74 -77 -74 -183v-372h492v-33h-492v-148h492v-32h-492v-435q0 -105 74 -182q76 -76 184 -76h176q110 0 183 76 q75 75 75 182v324h37v-324q0 -122 -86 -208t-209 -86h-176q-123 0 -209 86t-86 208v435h-112z" />
<glyph unicode="&#x2122;" horiz-adv-x="1314" d="M131 1610v28h475v-28h-225v-793h-25v793h-225zM676 817v821h98l154 -770l155 770h101v-821h-31v793h-47l-158 -772h-41l-155 772h-52v-793h-24z" />
<glyph unicode="&#x25fc;" horiz-adv-x="1146" d="M0 0v1147h1147v-1147h-1147z" />
</font>
</defs>
</svg>
