<?xml version="1.0" standalone="no"?>
<!DOCTYPE svg PUBLIC "-//W3C//DTD SVG 1.1//EN" "http://www.w3.org/Graphics/SVG/1.1/DTD/svg11.dtd" >
<svg xmlns="http://www.w3.org/2000/svg">
<metadata></metadata>
<defs>
<font id="politicabold" horiz-adv-x="1075" >
<font-face units-per-em="2048" ascent="1702" descent="-346" />
<missing-glyph horiz-adv-x="448" />
<glyph unicode="&#xfb01;" horiz-adv-x="1198" d="M25 965v182h153v147q0 113 80 193t193 80h145v-185h-141q-41 0 -65.5 -24.5t-24.5 -63.5v-147h575v-182h-2v-713q0 -39 24.5 -63.5t65.5 -24.5h98v-184h-102q-114 0 -193 79t-79 193v713h-387v-1010q0 -113 -80 -193q-79 -79 -197 -79v184q41 0 65.5 24.5t24.5 63.5v1010 h-153zM754 1350v217h184v-217h-184z" />
<glyph unicode="&#xfb02;" horiz-adv-x="1204" d="M25 965v182h153v147q0 113 80 193t193 80h518v-420h2v-895q0 -39 24.5 -63.5t65.5 -24.5h98v-184h-102q-114 0 -193 79q-80 80 -80 193v1130h-329q-41 0 -65.5 -24.5t-24.5 -63.5v-147h219v-182h-219v-1010q0 -113 -80 -193q-79 -79 -197 -79v184q41 0 65.5 24.5 t24.5 63.5v1010h-153z" />
<glyph horiz-adv-x="0" />
<glyph horiz-adv-x="682" />
<glyph unicode=" "  horiz-adv-x="448" />
<glyph unicode="&#x09;" horiz-adv-x="448" />
<glyph unicode="&#xa0;" horiz-adv-x="448" />
<glyph unicode="!" horiz-adv-x="501" d="M160 0v217h184v-217h-184zM160 422v1208h184v-1208h-184z" />
<glyph unicode="&#x22;" horiz-adv-x="727" d="M129 1036v529h184v-529h-184zM416 1036v529h184v-529h-184z" />
<glyph unicode="#" horiz-adv-x="1486" d="M160 522v183h211l59 190h-199v182h258l93 295h163l-92 -295h295l92 295h164l-92 -295h217v-182h-274l-60 -190h262v-183h-319l-100 -317h-166l100 317h-293l-100 -317h-166l100 317h-153zM537 705h292l60 190h-293z" />
<glyph unicode="$" d="M143 481v183h185v-183q0 -38 25 -63t63 -25h35v375q-175 87 -244 156q-64 67 -64 166v34q0 113 80 193t193 80h35v180h159v-180h47q113 0 193 -80t80 -193v-41h-185v41q0 38 -25 63t-63 25h-47v-325q186 -94 252 -166q68 -71 68 -170v-70q0 -112 -80 -192t-193 -80h-47 v-209h-159v209h-35q-113 0 -193 80t-80 192zM328 1104q0 -32 28 -60t95 -67v235h-35q-38 0 -63 -25t-25 -63v-20zM610 393h47q41 0 66 24.5t25 63.5v49q0 44 -31 78.5t-107 77.5v-293z" />
<glyph unicode="%" horiz-adv-x="1785" d="M129 1016v305q0 115 68 192q68 80 163 80h218q95 0 163 -80q68 -77 68 -192v-305q0 -113 -68 -193t-163 -80h-218q-95 0 -163 80t-68 193zM303 1016q0 -39 17 -68.5t40 -29.5h218q23 0 40 29.5t17 68.5v305q0 39 -17 68.5t-40 29.5h-218q-23 0 -40 -29.5t-17 -68.5v-305z M494 0l630 1634h185l-631 -1634h-184zM977 254v305q0 117 67 193q67 79 164 79h217q97 0 164 -79q68 -77 68 -193v-305q0 -113 -68 -193q-67 -79 -164 -79h-217q-97 0 -164 79t-67 193zM1151 254q0 -39 17 -68.5t40 -29.5h217q23 0 40.5 30t17.5 68v305q0 38 -17.5 68 t-40.5 30h-217q-23 0 -40 -29.5t-17 -68.5v-305z" />
<glyph unicode="&#x26;" horiz-adv-x="1253" d="M129 236v305q0 80 48.5 149.5t123.5 95.5q-70 31 -114 98t-44 144v295q0 120 73.5 184t203.5 64h256q126 0 195 -64t69 -184v-162h-184v162q0 36 -16.5 49.5t-63.5 13.5h-256q-92 0 -92 -63v-295q0 -58 49 -104q48 -45 88 -45h211v-185h-211q-40 0 -96 -47t-56 -106v-285 q0 -82 107 -82h256q80 0 80 82v694h184v-73h260v-185h-260v-456q0 -120 -69 -183t-195 -63h-258q-132 0 -210.5 65t-78.5 181z" />
<glyph unicode="'" horiz-adv-x="440" d="M129 1036v529h184v-529h-184z" />
<glyph unicode="(" horiz-adv-x="636" d="M98 778q0 542 322 946h201q-345 -429 -345 -946q0 -514 345 -946h-201q-322 407 -322 946z" />
<glyph unicode=")" horiz-adv-x="636" d="M16 -168q344 431 344 946q0 518 -344 946h201q322 -404 322 -946q0 -539 -322 -946h-201z" />
<glyph unicode="*" horiz-adv-x="903" d="M129 1272v147l252 -65v233h143v-233l252 65v-147l-231 -60l198 -208l-100 -103l-190 207l-185 -201l-106 97l198 208z" />
<glyph unicode="+" d="M180 621v200h256v234h203v-234h258v-200h-258v-283h-203v283h-256z" />
<glyph unicode="," horiz-adv-x="501" d="M160 317h184v-636h-184v636z" />
<glyph unicode="-" horiz-adv-x="841" d="M119 629v182h606v-182h-606z" />
<glyph unicode="." horiz-adv-x="458" d="M129 100.5q0 40.5 29 71.5q31 31 71.5 31t71.5 -31t31 -71.5t-31 -71.5q-31 -29 -71.5 -29t-71.5 29q-29 31 -29 71.5z" />
<glyph unicode="/" horiz-adv-x="903" d="M16 -123l709 1884h164l-709 -1884h-164z" />
<glyph unicode="0" d="M143 252v1063q0 115 80 192q80 80 193 80h243q116 0 193 -80q80 -77 80 -192v-1063q0 -113 -80 -193q-79 -79 -193 -79h-243q-114 0 -193 79q-80 80 -80 193zM328 252q0 -38 25 -63t63 -25h243q41 0 65 24.5t24 63.5v1063q0 41 -24 64.5t-65 23.5h-243q-39 0 -63.5 -23.5 t-24.5 -64.5v-1063z" />
<glyph unicode="1" d="M139 0v184h373v1198h-373v185h557v-1383h303v-184h-860z" />
<glyph unicode="2" d="M127 0v102q0 218 49 349t180 256q27 25 129 102q72 54 138 109q59 46 100 125.5t41 166.5v84q0 50 -31 80.5t-80 30.5h-231q-50 0 -80.5 -30.5t-30.5 -80.5h-184q0 123 86 209t209 86h231q123 0 209 -86t86 -209v-84q0 -189 -114 -321q-56 -65 -105 -111 q-48 -45 -125 -104q-56 -43 -108 -88q-125 -116 -154 -195q-31 -82 -31 -207h637v-184h-821z" />
<glyph unicode="3" d="M137 1303v40q0 120 72.5 183t202.5 63h233q129 0 204 -64.5t75 -181.5v-243q0 -82 -28.5 -149t-86.5 -95q64 -23 96.5 -91.5t32.5 -152.5v-387q0 -117 -75 -181t-204 -64h-233q-130 0 -202 62.5t-72 182.5v353h184v-353q0 -33 20.5 -47t69.5 -14h231q97 0 97 61v387 q0 42 -33 86q-35 47 -78 47h-168v185h168q43 0 70 61q26 59 26 109v243q0 62 -96 62h-231q-90 0 -90 -62v-40h-185z" />
<glyph unicode="4" d="M25 274l495 1293h367v-1108h106v-185h-106v-274h-185v274h-677zM287 459h415v923h-61z" />
<glyph unicode="5" d="M143 225v353h185v-353q0 -33 20.5 -47t69.5 -14h231q96 0 96 61v412q0 66 -19.5 97.5t-68.5 31.5h-469v799h744v-183h-559v-432h284q273 0 273 -313v-412q0 -117 -75 -181t-204 -64h-233q-130 0 -202.5 62.5t-72.5 182.5z" />
<glyph unicode="6" d="M143 254v1063q0 112 80 192t193 80h243q116 0 193 -80q80 -80 80 -192v-156h-184v156q0 39 -24 63.5t-65 24.5h-243q-38 0 -63 -25t-25 -63v-449q34 21 88 21h243q113 0 193 -80t80 -193v-362q0 -113 -80 -193q-79 -79 -193 -79h-243q-114 0 -193 79q-80 80 -80 193z M328 254q0 -41 24.5 -64.5t63.5 -23.5h243q41 0 65 23.5t24 64.5v362q0 39 -24 64t-65 25h-243q-41 0 -64.5 -24t-23.5 -63v-364z" />
<glyph unicode="7" d="M152 1393v184h792l-487 -1577h-185l433 1393h-553z" />
<glyph unicode="8" d="M141 254v356q0 88 40 154t112 92q-137 61 -137 242v217q0 112 80 192t192 80h219q113 0 193 -80t80 -192v-217q0 -180 -138 -242q72 -26 112 -92t40 -154v-356q0 -113 -80 -193q-79 -79 -192 -79h-248q-114 0 -193 79q-80 80 -80 193zM326 254q0 -41 23.5 -64.5 t64.5 -23.5h248q39 0 63.5 23.5t24.5 64.5v356q0 55 -26.5 96.5t-64.5 47.5h-243q-38 -6 -64 -47.5t-26 -96.5v-356zM340 1098q0 -56 24 -95t62 -45h223q38 6 62 45t24 95v217q0 41 -23.5 64.5t-64.5 23.5h-219q-39 0 -63.5 -23.5t-24.5 -64.5v-217z" />
<glyph unicode="9" d="M147 256v156h185v-156q0 -38 25 -63t63 -25h244q41 0 64.5 24.5t23.5 63.5v449q-34 -21 -88 -21h-244q-113 0 -193 80t-80 192v363q0 112 80 192t193 80h244q112 0 192 -80t80 -192v-1063q0 -113 -80 -193q-76 -79 -192 -79h-244q-114 0 -193 79q-80 80 -80 193zM332 956 q0 -38 25 -63t63 -25h244q41 0 64.5 23.5t23.5 62.5v365q0 41 -23.5 64.5t-64.5 23.5h-244q-39 0 -63.5 -23.5t-24.5 -64.5v-363z" />
<glyph unicode=":" horiz-adv-x="458" d="M129 100.5q0 40.5 29 71.5q31 31 71.5 31t71.5 -31t31 -71.5t-31 -71.5q-31 -29 -71.5 -29t-71.5 29q-29 31 -29 71.5zM129 919.5q0 40.5 29 71.5q31 31 71.5 31t71.5 -31t31 -71.5t-31 -71.5q-31 -29 -71.5 -29t-71.5 29q-29 31 -29 71.5z" />
<glyph unicode=";" horiz-adv-x="458" d="M129 948.5q0 40.5 29 71.5q31 31 71.5 31t71.5 -31t31 -71.5t-31 -71.5q-31 -29 -71.5 -29t-71.5 29q-29 31 -29 71.5zM133 317h184v-636h-184v636z" />
<glyph unicode="&#x3c;" d="M233 850l441 496l149 -66l-389 -430l406 -447l-148 -67z" />
<glyph unicode="=" d="M180 440v185h717v-185h-717zM180 811v184h717v-184h-717z" />
<glyph unicode="&#x3e;" d="M233 403l406 447l-389 430l149 66l441 -496l-459 -514z" />
<glyph unicode="?" horiz-adv-x="999" d="M86 1165v213q0 113 80 193t192 80h283q113 0 193 -80q79 -79 79 -193v-231q0 -105 -69 -189q-68 -86 -180 -86h-50q-90 -3 -90 -94v-379h-184v379q0 125 74.5 201.5t197.5 77.5h52q26 0 45.5 26.5t19.5 63.5v231q0 38 -25 63t-63 25h-283q-38 0 -63 -25t-25 -63v-213 h-184zM340 0v217h184v-217h-184z" />
<glyph unicode="@" horiz-adv-x="1658" d="M129 319v529q0 188 131 319t320 131h501q185 0 318 -133t133 -317v-436q0 -100 -72 -172q-70 -70 -172 -70h-256v117q-301 -148 -405 -148q-82 0 -139.5 57.5t-57.5 139.5v432q0 113 80 193q79 79 192 79h242q114 0 193 -79q80 -80 80 -193v-414h63q25 0 46.5 16.5 t21.5 41.5v436q0 106 -80 186t-187 80h-501q-109 0 -189 -80q-78 -81 -78 -186v-529q0 -105 78 -186q80 -80 189 -80h374v-184h-374q-189 0 -320 131t-131 319zM614 336q0 -12 13 -12q51 0 149 36q123 49 178 78l78 37v293q0 49 -21 68.5t-67 19.5h-242q-38 0 -63 -25 t-25 -63v-432z" />
<glyph unicode="A" horiz-adv-x="1105" d="M37 0l266 1569q5 27 31.5 48t56.5 21h326q30 0 56.5 -21t31.5 -48l266 -1569h-184l-66 397h-534l-66 -397h-184zM317 582h474l-142 845q-6 27 -20 27h-150q-17 0 -20 -27z" />
<glyph unicode="B" horiz-adv-x="1130" d="M160 0v1638h594q103 0 174 -71t71 -174v-295q0 -77 -43.5 -144t-113.5 -98q77 -30 124.5 -96.5t47.5 -149.5v-364q0 -103 -74 -174q-72 -72 -172 -72h-608zM344 184h422q63 0 63 62v364q0 44 -25.5 90.5t-62.5 63.5h-397v-580zM344 948h399q70 30 70 146v299 q0 27 -15.5 45t-43.5 18h-410v-508z" />
<glyph unicode="C" horiz-adv-x="1099" d="M129 274v1082q0 123 86 209t209 86h264q123 0 209 -86t86 -209v-258h-184v258q0 49 -30.5 79.5t-80.5 30.5h-264q-50 0 -80.5 -30.5t-30.5 -79.5v-1082q0 -49 30.5 -79.5t80.5 -30.5h268q79 0 92 31q15 27 15 79v324h184v-324q0 -122 -86 -208t-209 -86h-264 q-123 0 -209 86t-86 208z" />
<glyph unicode="D" horiz-adv-x="1140" d="M160 0v1638h559q127 0 209 -82q86 -80 86 -200v-1061q0 -123 -86 -209t-209 -86h-559zM344 184h375q49 0 79.5 30.5t30.5 80.5v1061q0 47 -29.5 72.5t-80.5 25.5h-375v-1270z" />
<glyph unicode="E" horiz-adv-x="970" d="M160 0v1638h731v-184h-547v-459h492v-184h-492v-627h547v-184h-731z" />
<glyph unicode="F" horiz-adv-x="915" d="M160 0v1638h733v-204h-549v-439h492v-184h-492v-811h-184z" />
<glyph unicode="G" horiz-adv-x="1089" d="M129 274v1082q0 123 86 209t209 86h256q123 0 209 -86t86 -209v-258h-184v258q0 49 -30.5 79.5t-80.5 30.5h-256q-50 0 -80.5 -30.5t-30.5 -79.5v-1082q0 -49 30.5 -79.5t80.5 -30.5h256q111 0 111 110v385h-293v185h477v-570q0 -122 -86 -208t-209 -86h-256 q-123 0 -209 86t-86 208z" />
<glyph unicode="H" horiz-adv-x="1165" d="M160 0v1638h184v-643h479v643h185v-1638h-185v813h-479v-813h-184z" />
<glyph unicode="I" horiz-adv-x="524" d="M170 0v1638h184v-1638h-184z" />
<glyph unicode="J" horiz-adv-x="1019" d="M45 274v324h184v-324q0 -49 30.5 -79.5t80.5 -30.5h258q50 0 80.5 30.5t30.5 79.5v1364h184v-1364q0 -122 -86 -208t-209 -86h-258q-123 0 -209 86t-86 208z" />
<glyph unicode="K" horiz-adv-x="1157" d="M160 0v1638h182v-643h254l346 643h193l-385 -725v-18l385 -895h-193l-346 813h-254v-813h-182z" />
<glyph unicode="L" horiz-adv-x="903" d="M160 0v1638h182v-1454h547v-184h-729z" />
<glyph unicode="M" horiz-adv-x="1548" d="M137 0l64 1638h358l215 -1187l213 1187h365l61 -1638h-184l-60 1454h-20l-291 -1434h-168l-287 1434h-20l-61 -1454h-185z" />
<glyph unicode="N" horiz-adv-x="1234" d="M160 0v1638h329l383 -1454h19v1454h184v-1638h-327l-388 1454h-16v-1454h-184z" />
<glyph unicode="O" horiz-adv-x="1110" d="M129 274v1082q0 123 86 209t209 86h264q123 0 209 -86t86 -209v-1082q0 -122 -86 -208t-209 -86h-264q-123 0 -209 86t-86 208zM313 274q0 -49 30.5 -79.5t80.5 -30.5h264q50 0 80.5 30.5t30.5 79.5v1082q0 49 -30.5 79.5t-80.5 30.5h-264q-50 0 -80.5 -30.5t-30.5 -79.5 v-1082z" />
<glyph unicode="P" horiz-adv-x="1062" d="M160 0v1638h551q127 0 209 -82q86 -80 86 -200v-361q0 -123 -86 -209t-209 -86h-367v-700h-184zM344 885h367q49 0 79.5 30.5t30.5 79.5v361q0 47 -29.5 72.5t-80.5 25.5h-367v-569z" />
<glyph unicode="Q" horiz-adv-x="1110" d="M129 274v1082q0 123 86 209t209 86h264q123 0 209 -86t86 -209v-1082q0 -122 -86 -208t-209 -86h-39v-291h-184v291h-41q-123 0 -209 86t-86 208zM313 274q0 -49 30.5 -79.5t80.5 -30.5h41v227h184v-227h39q50 0 80.5 30.5t30.5 79.5v1082q0 49 -30.5 79.5t-80.5 30.5 h-264q-50 0 -80.5 -30.5t-30.5 -79.5v-1082z" />
<glyph unicode="R" horiz-adv-x="1130" d="M160 0v1638h594q103 0 174 -71t71 -174v-295q0 -77 -43.5 -144t-113.5 -98q77 -30 124.5 -96.5t47.5 -149.5v-610h-185v610q0 114 -88 154h-397v-764h-184zM344 948h399q70 30 70 146v299q0 26 -19.5 44.5t-48.5 18.5h-401v-508z" />
<glyph unicode="S" horiz-adv-x="1050" d="M102 274v304h185v-304q0 -50 30.5 -80t79.5 -30h244q50 0 80.5 30.5t30.5 79.5v158q0 157 -105 248q-72 69 -217 151q-8 3 -17 9t-14 8q-284 163 -284 395v113q0 123 86 209t209 86h243q123 0 209 -86t86 -209h-184q0 49 -30.5 79.5t-80.5 30.5h-243q-50 0 -80.5 -30.5 t-30.5 -79.5v-113q0 -78 78 -153q66 -50 82 -60l45 -29l49 -26l47 -27q336 -191 336 -516v-158q0 -122 -86 -208t-209 -86h-244q-123 0 -209 86t-86 208z" />
<glyph unicode="T" horiz-adv-x="929" d="M16 1454v184h899v-184h-358v-1454h-184v1454h-357z" />
<glyph unicode="U" horiz-adv-x="1130" d="M137 274v1364h185v-1364q0 -50 30 -80t80 -30h266q50 0 80.5 30.5t30.5 79.5v1364h184v-1364q0 -122 -86 -208t-209 -86h-266q-123 0 -209 86t-86 208z" />
<glyph unicode="V" horiz-adv-x="1107" d="M37 1638h188l236 -1448q3 -26 20 -26h146q14 0 20 26l242 1448h184l-270 -1589q-5 -27 -31.5 -48t-56.5 -21h-322q-30 0 -56.5 21t-31.5 48z" />
<glyph unicode="W" horiz-adv-x="1724" d="M137 274v1364h185v-1364q0 -50 30 -80t80 -30h146q83 0 137 69q55 70 55 144v1261h184v-1261q0 -73 56 -144q54 -69 137 -69h143q50 0 80.5 30.5t30.5 79.5v1364h184v-1364q0 -122 -86 -208t-209 -86h-143q-102 0 -180 60t-105 155q-27 -95 -104.5 -155t-179.5 -60h-146 q-123 0 -209 86t-86 208z" />
<glyph unicode="X" horiz-adv-x="1024" d="M37 0l364 891l-311 747h193l229 -596l229 596h193l-313 -745l366 -893h-188l-287 727l-287 -727h-188z" />
<glyph unicode="Y" horiz-adv-x="1107" d="M37 1638h188l240 -972q3 -27 20 -27h148q14 0 20 27l236 972h184l-264 -1114q-7 -29 -37 -48t-67 -19h-58v-457h-182v457h-53q-38 0 -68.5 19t-34.5 48z" />
<glyph unicode="Z" horiz-adv-x="995" d="M61 0l592 1454h-592v184h873l-588 -1454h588v-184h-873z" />
<glyph unicode="[" horiz-adv-x="626" d="M160 -143v1925h452v-185h-268v-1556h268v-184h-452z" />
<glyph unicode="\" horiz-adv-x="765" d="M16 1638h189l547 -1638h-193z" />
<glyph unicode="]" horiz-adv-x="626" d="M16 41h269v1556h-269v185h453v-1925h-453v184z" />
<glyph unicode="^" d="M233 1305l254 303h101l254 -303h-164l-137 159h-6l-138 -159h-164z" />
<glyph unicode="_" horiz-adv-x="944" d="M16 -29h914v-182h-914v182z" />
<glyph unicode="`" horiz-adv-x="704" d="M78 1567h178l207 -269h-178z" />
<glyph unicode="a" horiz-adv-x="985" d="M70 176v182q0 134 48 198.5t154 98.5l400 86v152q0 90 -111 90h-149q-113 0 -113 -90v-39h-184v39q0 123 88 199q87 75 209 75h149q123 -3 207 -75q88 -73 88 -197v-895h-184v127q-299 -147 -406 -147q-82 0 -139 57t-57 139zM254 258q0 -92 27 -92q16 0 116 35 q139 53 187 73l88 37v256l-357 -84q-37 -17 -49 -51.5t-12 -112.5v-61z" />
<glyph unicode="b" horiz-adv-x="1032" d="M127 252v1198h2v117h184v-547q308 146 416 149q79 0 130.5 -56.5t53.5 -141.5v-719q-3 -116 -82 -195q-80 -77 -192 -77h-240h-8q-109 0 -186 77q-78 81 -78 195zM311 252q0 -41 23.5 -64.5t64.5 -23.5h242q38 0 63 24.5t25 61.5v676q0 55 -29 55q-43 0 -389 -145v-584z " />
<glyph unicode="c" horiz-adv-x="964" d="M119 252v643q0 112 80 192t192 80h242q112 0 192 -80t80 -192v-154h-184v154q0 38 -25 63t-63 25h-242q-38 0 -63 -25t-25 -63v-643q0 -38 25 -63t63 -25h242q38 0 63 25t25 63v147h184v-147q0 -113 -80 -193q-79 -79 -192 -79h-242q-113 0 -192 79q-80 80 -80 193z" />
<glyph unicode="d" horiz-adv-x="1042" d="M117 176v719q3 116 82 192q80 80 192 80h240q47 0 88 -12v293h2v117h184v-127h-2v-1438h-184v127q-317 -147 -418 -147q-79 0 -130.5 55.5t-53.5 140.5zM301 221q0 -55 31 -55q41 0 387 145v584q0 41 -23.5 64.5t-62.5 23.5h-242q-38 0 -64 -24.5t-26 -61.5v-676z" />
<glyph unicode="e" horiz-adv-x="987" d="M119 252v643q0 112 80 192t192 80h242q112 0 192 -80t80 -192v-348h-602v-295q0 -38 25 -63t63 -25h242q38 0 63 25t25 63v147h184v-147q0 -113 -80 -193q-79 -79 -192 -79h-242q-113 0 -192 79q-80 80 -80 193zM303 731h418v164q0 38 -25 63t-63 25h-242q-38 0 -63 -25 t-25 -63v-164z" />
<glyph unicode="f" horiz-adv-x="595" d="M25 965v182h153v147q0 113 80 193t193 80h145v-185h-141q-41 0 -65.5 -24.5t-24.5 -63.5v-147h219v-182h-219v-1010q0 -113 -80 -193q-79 -79 -197 -79v184q41 0 65.5 24.5t24.5 63.5v1010h-153z" />
<glyph unicode="g" horiz-adv-x="1032" d="M119 307v590q0 113 80 193q79 79 192 79h242q113 0 192 -79q80 -80 80 -193v-948q0 -113 -78 -191q-77 -77 -192 -77h-242q-115 0 -194 79q-78 81 -78 193v45h184v-45q0 -39 23.5 -63.5t64.5 -24.5h242q41 0 64.5 24.5t23.5 63.5v313q-297 -155 -408 -155q-82 0 -139 57 t-57 139zM303 307q0 -12 12 -12q49 0 150 43q99 42 178 84l78 43v432q0 41 -24.5 64.5t-63.5 23.5h-242q-39 0 -63.5 -23.5t-24.5 -64.5v-590z" />
<glyph unicode="h" horiz-adv-x="1052" d="M139 0v1567h185v-547q301 145 405 145q82 0 139.5 -57t57.5 -139v-969h-185v913q0 66 -26 66q-19 0 -117 -37q-107 -41 -186 -74l-88 -34v-834h-185z" />
<glyph unicode="i" horiz-adv-x="569" d="M147 252v895h187v-895q0 -39 24.5 -63.5t65.5 -24.5h98v-184h-102q-114 0 -193 79q-80 80 -80 193zM150 1350v217h184v-217h-184z" />
<glyph unicode="j" horiz-adv-x="534" d="M-12 -135h123q41 0 65.5 24.5t24.5 63.5v1194h186v-1194q0 -113 -80 -193q-79 -79 -192 -79h-127v184zM197 1350v217h186v-217h-186z" />
<glyph unicode="k" horiz-adv-x="995" d="M139 0v1567h183v-858h165l263 438h204l-303 -520v-19l344 -608h-215l-293 526h-165v-526h-183z" />
<glyph unicode="l" horiz-adv-x="567" d="M147 252v1313h185v-418h2v-895q0 -39 24.5 -63.5t65.5 -24.5h98v-184h-102q-114 0 -193 79q-80 80 -80 193z" />
<glyph unicode="m" horiz-adv-x="1538" d="M139 0v1147h185v-135q242 151 348 151q65 0 117 -41.5t71 -105.5v-2q11 8 70 43q28 17 147 71q85 39 137 39q82 0 139.5 -58t57.5 -140v-969h-182v887q0 88 -29 88q-18 0 -102 -35q-94 -39 -158 -72l-74 -34v-834h-182v879q0 92 -27 92q-21 0 -102 -37q-119 -54 -158 -74 l-73 -35v-825h-185z" />
<glyph unicode="n" horiz-adv-x="1052" d="M139 0v1147h185v-127q301 145 405 145q82 0 139.5 -57t57.5 -139v-969h-185v913q0 66 -26 66q-19 0 -117 -37q-107 -41 -186 -74l-88 -34v-834h-185z" />
<glyph unicode="o" horiz-adv-x="1021" d="M119 252v643q0 112 80 192t192 80h242q112 0 192 -80t80 -192v-643q0 -113 -80 -193q-79 -79 -192 -79h-242q-113 0 -192 79q-80 80 -80 193zM303 252q0 -38 25 -63t63 -25h242q47 0 67.5 18t20.5 70v643q0 38 -25 63t-63 25h-242q-38 0 -63 -25t-25 -63v-643z" />
<glyph unicode="p" horiz-adv-x="1042" d="M139 -301v1448h185v-127q316 147 417 147q79 0 131 -55.5t54 -140.5v-719q-3 -116 -82 -195q-80 -77 -193 -77h-239q-48 0 -88 12v-293h-185zM324 252q0 -41 23.5 -64.5t62.5 -23.5h241q38 0 64 24.5t26 61.5v676q0 55 -30 55q-41 0 -387 -145v-584z" />
<glyph unicode="q" horiz-adv-x="1032" d="M119 178v719q3 117 82 193q79 79 192 79h240h8q110 0 184 -77q80 -80 80 -195v-1198h-184v430q-308 -146 -418 -149q-79 0 -130.5 56.5t-53.5 141.5zM303 223q0 -55 29 -55q43 0 389 145v584q0 41 -23.5 64.5t-64.5 23.5h-242q-38 0 -63 -24.5t-25 -61.5v-676z" />
<glyph unicode="r" horiz-adv-x="972" d="M139 0v1147h185v-127q301 145 405 145q82 0 139.5 -57t57.5 -139v-205h-185v123q0 92 -26 92q-19 0 -117 -37q-107 -41 -186 -74l-88 -34v-834h-185z" />
<glyph unicode="s" horiz-adv-x="983" d="M98 252v182h185v-182q0 -38 25 -63t63 -25h241q41 0 65.5 24.5t24.5 63.5v49q0 60 -57 102q-55 43 -215 123q-190 97 -262 166q-70 67 -70 168v35q0 112 80 192t193 80h241q113 0 193 -80t80 -192v-41h-185v41q0 38 -25 63t-63 25h-241q-38 0 -63 -25t-25 -63v-21 q0 -20 10.5 -35.5t36.5 -41.5q6 -6 82 -54l114 -65q215 -110 285 -180q74 -71 74 -176v-70q0 -113 -80 -193q-79 -79 -193 -79h-241q-114 0 -193 79q-80 80 -80 193z" />
<glyph unicode="t" horiz-adv-x="692" d="M16 965v182h179v295h186v-295h295v-182h-295v-713q0 -39 24.5 -63.5t65.5 -24.5h98v-184h-102q-114 0 -193 79t-79 193v713h-179z" />
<glyph unicode="u" horiz-adv-x="1052" d="M127 178v969h184v-914q0 -65 27 -65q17 0 117 35q129 49 186 73l88 37v834h184v-1147h-184v127q-301 -145 -405 -145q-82 0 -139.5 57t-57.5 139z" />
<glyph unicode="v" horiz-adv-x="933" d="M47 1145h189l153 -955q3 -26 21 -26h120q15 0 21 26l154 955h184l-182 -1096q-5 -27 -32 -48t-57 -21h-296q-30 0 -57 21t-32 48z" />
<glyph unicode="w" horiz-adv-x="1570" d="M129 274v873h184v-873q0 -110 88 -110h123q77 0 123.5 56t46.5 157v770h185v-770q0 -101 46.5 -157t123.5 -56h122q89 0 89 110v873h184v-873q0 -126 -76 -211q-77 -83 -197 -83h-122q-93 0 -165 54t-98 146q-26 -92 -97.5 -146t-164.5 -54h-123q-119 0 -196 83 q-76 85 -76 211z" />
<glyph unicode="x" horiz-adv-x="970" d="M47 0l346 614l-287 533h199l184 -356l195 356h199l-297 -533l338 -614h-199l-236 436l-243 -436h-199z" />
<glyph unicode="y" horiz-adv-x="913" d="M37 1145h188l154 -955q0 -4 2 -8q2 -11 5 -14.5t13 -3.5h121q15 0 21 26l153 955h185l-244 -1464h-176l47 299h-195q-30 0 -56.5 21t-31.5 48z" />
<glyph unicode="z" horiz-adv-x="917" d="M70 0v184l565 779h-561v184h768v-184l-568 -781h574v-182h-778z" />
<glyph unicode="{" horiz-adv-x="555" d="M70 741v156q83 0 121 44t38 163v385q0 119 64.5 190t163.5 82v-184q-43 -9 -43 -88v-385q0 -145 -37 -204t-123 -64v-33q60 -3 93.5 -27.5t50 -82t16.5 -158.5v-385q0 -37 6 -56.5t13.5 -24t23.5 -8.5v-184q-99 11 -163.5 82.5t-64.5 190.5v385q0 119 -38 162.5 t-121 43.5z" />
<glyph unicode="|" horiz-adv-x="501" d="M160 -102v1843h184v-1843h-184z" />
<glyph unicode="}" horiz-adv-x="555" d="M98 61q16 4 23.5 8.5t13.5 24t6 56.5v385q0 101 16.5 158.5t50 82t93.5 27.5v33q-86 5 -123 64t-37 204v385q0 79 -43 88v184q99 -11 163.5 -82t64.5 -190v-385q0 -119 38 -163t121 -44v-156q-83 0 -121 -43.5t-38 -162.5v-385q0 -119 -64.5 -190.5t-163.5 -82.5v184z " />
<glyph unicode="~" d="M272 1464q52 64 127 64q55 0 142 -37q93 -35 139 -35q64 0 115 57l10 -155q-57 -66 -125 -66q-50 0 -143 35q-87 37 -138 37q-64 0 -116 -55z" />
<glyph horiz-adv-x="1024" />
<glyph unicode="&#xa1;" horiz-adv-x="501" d="M158 -266v1208h184v-1208h-184zM158 1147v217h184v-217h-184z" />
<glyph unicode="&#xa2;" d="M143 473v643q0 114 80 191q79 79 195 79h24v181h185v-181h32q114 0 193 -79q80 -77 80 -191v-153h-184v153q0 38 -23.5 63t-60.5 25h-37v-821h30q41 0 66 24.5t25 65.5v148h184v-148q0 -115 -82 -194q-80 -80 -195 -80h-28v-199h-185v201h-26q-113 0 -193 80t-80 192z M328 473q0 -41 23.5 -64.5t62.5 -23.5h28v819h-18q-44 0 -70 -23.5t-26 -64.5v-643z" />
<glyph unicode="&#xa3;" d="M41 0v184h287q-109 53 -109 176v379h-178v185h178v370q0 123 86 209t209 86h229q123 0 209 -86t86 -209v-196h-184v196q0 50 -31 80.5t-80 30.5h-229q-50 0 -80.5 -30.5t-30.5 -80.5v-370h238v-185h-238v-379q0 -94 162 -176h482v-184h-1006z" />
<glyph unicode="&#xa4;" d="M66 635v143h112v74h-112v143h112v299q0 123 86 209t209 86h240q123 0 209 -86t86 -209v-258h-185v258q0 50 -30.5 80.5t-79.5 30.5h-240q-49 0 -80 -30.5t-31 -80.5v-299h369v-143h-369v-74h369v-143h-369v-361q0 -49 30.5 -79.5t80.5 -30.5h240q57 0 81.5 25t24.5 85 v324h189v-324q0 -122 -86 -208t-209 -86h-240q-123 0 -209 86t-86 208v361h-112z" />
<glyph unicode="&#xa5;" d="M31 1569h188l240 -760q9 -27 20 -27h123q12 0 21 27l235 762h184l-264 -903q-6 -27 -32 -48.5t-56 -21.5h-61v-96h295v-144h-295v-73h295v-144h-295v-141h-183v141h-305v144h305v73h-305v144h305v96h-55q-30 0 -56.5 21.5t-31.5 48.5z" />
<glyph unicode="&#xa6;" horiz-adv-x="481" d="M160 -102v798h164v-798h-164zM160 942v799h164v-799h-164z" />
<glyph unicode="&#xa7;" horiz-adv-x="1042" d="M129 252v182h184v-182q0 -39 23.5 -63.5t64.5 -24.5h242q41 0 64.5 24.5t23.5 63.5v61q0 85 -213 189q-64 30 -106.5 51.5t-102 59t-94.5 71.5t-61 81.5t-25 96.5v33q0 89 45 154q-45 62 -45 131v32q0 115 78 193q80 80 194 80h242q116 0 193 -80q79 -76 79 -193v-41 h-184v41q0 41 -23.5 64.5t-64.5 23.5h-242q-41 0 -64.5 -23.5t-23.5 -64.5v-32q0 -40 95 -99q89 -55 206 -112q107 -49 207 -146q94 -88 94 -192v-62q0 -79 -38 -137q38 -55 38 -119v-61q0 -114 -79 -193t-193 -79h-242q-113 0 -192 79q-80 80 -80 193zM313 862 q0 -37 74 -84q60 -38 184 -100q113 -56 158 -90q2 4 2 24v19q0 55 -63 100q-62 47 -187 105q-56 26 -164 82q-4 -28 -4 -31v-25z" />
<glyph unicode="&#xa8;" horiz-adv-x="604" d="M92 1393q0 41 27.5 69.5t66.5 28.5t69 -29t30 -69q0 -39 -29 -67t-70 -28q-38 0 -66 28.5t-28 66.5zM328 1393q0 41 28.5 69.5t67.5 28.5t66.5 -28.5t27.5 -69.5q0 -38 -28 -66.5t-66 -28.5t-67 28.5t-29 66.5z" />
<glyph unicode="&#xa9;" horiz-adv-x="1288" d="M129 307v529q0 136 115 231q116 96 280 96h242q165 0 281 -96q114 -94 114 -231v-529q0 -139 -114 -233q-113 -94 -281 -94h-242q-167 0 -280 94q-115 95 -115 233zM272 307q0 -80 69.5 -132t182.5 -52h242q113 0 182.5 52t69.5 132v529q0 85 -70.5 134.5t-181.5 49.5 h-242q-113 0 -182.5 -52t-69.5 -132v-529zM313 307v529q0 62 60 102.5t151 40.5h242q91 0 151 -40.5t60 -102.5v-115h-164v53q0 26 -19.5 44t-48.5 18h-200q-29 0 -48.5 -18t-19.5 -44v-405q0 -26 19.5 -44t48.5 -18h203q29 0 47 17.5t18 44.5v49h164v-111q0 -62 -60 -102.5 t-151 -40.5h-242q-91 0 -151 40.5t-60 102.5z" />
<glyph unicode="&#xaa;" horiz-adv-x="847" d="M129 645v141h592v-141h-592zM150 991v121q4 53 18.5 83.5t35.5 44t64 30.5l310 49v102q0 41 -140 41q-139 0 -139 -41v-24h-123v24q0 83 72 123.5t190 40.5q116 0 189 -41t73 -123v-536h-122v61q-257 -74 -310 -74q-49 0 -83.5 34.5t-34.5 84.5zM272 1032q0 -28 29 -28 q11 0 82 18l133 37l62 18v117l-279 -41q-27 -9 -27 -41v-80z" />
<glyph unicode="&#xab;" horiz-adv-x="1157" d="M80 489l412 302l149 -70l-324 -232l324 -231l-149 -70zM469 489l412 302l149 -70l-323 -232l323 -231l-149 -70z" />
<glyph unicode="&#xac;" d="M90 588v182h895v-412h-182v230h-713z" />
<glyph unicode="&#xad;" horiz-adv-x="841" d="M119 629v182h606v-182h-606z" />
<glyph unicode="&#xae;" horiz-adv-x="1091" d="M129 850v475q0 126 88 211q89 86 215 86h230q126 0 215 -86q88 -85 88 -211v-475q0 -126 -88 -211q-89 -86 -215 -86h-230q-126 0 -215 86q-88 85 -88 211zM272 850q0 -68 50 -111t110 -43h230q60 0 109.5 43t49.5 111v475q0 68 -49.5 111t-109.5 43h-230q-60 0 -110 -43 t-50 -111v-475zM319 770v655h355q42 0 76 -30t34 -68v-119q0 -70 -63 -96q67 -24 67 -98v-244h-133v244q0 9 -14 17.5t-23 8.5h-165v-270h-134zM453 1184h165q31 0 31 24v58q0 26 -31 26h-165v-108z" />
<glyph unicode="&#xaf;" horiz-adv-x="645" d="M98 1325v141h451v-141h-451z" />
<glyph unicode="&#xb0;" horiz-adv-x="866" d="M129 1266v49q0 94 68 162q69 69 163 69h148q96 0 162 -69q69 -66 69 -162v-49q0 -95 -69 -164q-68 -68 -162 -68h-148q-92 0 -163 68q-68 71 -68 164zM272 1266q0 -37 25.5 -62.5t62.5 -25.5h148q37 0 62.5 25.5t25.5 62.5v49q0 37 -25.5 62.5t-62.5 25.5h-148 q-37 0 -62.5 -25.5t-25.5 -62.5v-49z" />
<glyph unicode="&#xb1;" d="M180 219v182h717v-182h-717zM180 743v201h256v234h203v-234h258v-201h-258v-282h-203v282h-256z" />
<glyph unicode="&#xb2;" horiz-adv-x="796" d="M160 727v123q0 107 51 168q40 43 47 49l64 57q124 118 151 170q21 38 21 70v43q0 27 -27 27h-125q-29 0 -29 -50v-16h-143v16q0 80 50 137.5t122 57.5h125q69 0 119.5 -50.5t50.5 -121.5v-43q0 -96 -76 -199l-51 -61l-27 -27l-24 -24l-23 -21q-67 -50 -94.5 -84 t-34.5 -76h330v-145h-477z" />
<glyph unicode="&#xb3;" horiz-adv-x="753" d="M129 1393v47q0 56 44.5 96.5t105.5 40.5h188q61 0 106 -40.5t45 -96.5v-123q0 -83 -61 -123q70 -40 70 -129v-199q0 -55 -47 -96t-105 -41h-188q-58 0 -104 41t-46 96v191h133v-170q0 -9 8 -17t21 -8h164q13 0 21 8t8 17v178q0 33 -26.5 49t-62.5 16h-174v125h174 q3 0 8.5 0.5t19.5 4t24.5 9.5t19 18.5t8.5 29.5v102q0 9 -8 17t-20 8h-164q-13 0 -21 -8t-8 -17v-26h-133z" />
<glyph unicode="&#xb4;" horiz-adv-x="704" d="M283 1298l206 269h179l-207 -269h-178z" />
<glyph unicode="&#xb6;" horiz-adv-x="1302" d="M119 723v643q0 113 80 193q79 79 192 79h754v-1945h-184v1763h-201v-1763h-185v758h-184q-113 0 -192 79q-80 80 -80 193zM303 723q0 -38 25 -63t63 -25h184v821h-184q-39 0 -63.5 -24.5t-24.5 -65.5v-643z" />
<glyph unicode="&#xb7;" horiz-adv-x="458" d="M129 594q0 41 29 72q31 31 71.5 31t71.5 -31t31 -72t-31 -72q-31 -29 -71.5 -29t-71.5 29q-29 31 -29 72z" />
<glyph unicode="&#xb8;" horiz-adv-x="892" d="M297 -465l72 113q64 -31 96 -31q53 0 84 26t31 68q0 38 -26.5 66t-66.5 28h-108l35 250h147l-24 -110q81 -19 133.5 -85.5t52.5 -148.5q0 -101 -73 -169t-185 -68q-70 0 -168 61z" />
<glyph unicode="&#xb9;" horiz-adv-x="552" d="M160 1432v135h233v-830h-153v695h-80z" />
<glyph unicode="&#xba;" horiz-adv-x="849" d="M129 645v141h594v-141h-594zM150 1036v385q0 69 47 116.5t116 47.5h224q68 0 115.5 -47.5t47.5 -116.5v-385q0 -68 -48 -116t-115 -48h-224q-69 0 -116 48t-47 116zM293 1047q0 -11 11 -21t20 -10h202q9 0 20 10t11 21v364q0 11 -10.5 21t-18.5 10h-204q-8 0 -19.5 -10.5 t-11.5 -20.5v-364z" />
<glyph unicode="&#xbb;" horiz-adv-x="1157" d="M129 258l324 231l-324 232l150 70l411 -302l-411 -301zM518 258l324 231l-324 232l150 70l411 -302l-411 -301z" />
<glyph unicode="&#xbc;" horiz-adv-x="1343" d="M129 1432v135h233v-830h-153v695h-80zM225 0l633 1634h158l-631 -1634h-160zM614 188l312 650h250v-514h41v-136h-41v-188h-136v188h-426zM834 324h206v383h-30z" />
<glyph unicode="&#xbd;" horiz-adv-x="1370" d="M129 1432v135h233v-830h-153v695h-80zM225 0l633 1634h158l-631 -1634h-160zM766 0v123q0 107 51 168q40 43 47 49l64 57q124 118 151 170q21 38 21 70v43q0 27 -27 27h-125q-28 0 -28 -50v-16h-144v16q0 80 50 137.5t122 57.5h125q69 0 119.5 -50t50.5 -122v-43 q0 -96 -76 -199l-51 -61l-26 -27l-25 -24l-23 -21q-67 -50 -94.5 -84t-34.5 -76h330v-145h-477z" />
<glyph unicode="&#xbe;" horiz-adv-x="1503" d="M129 1393v47q0 56 44.5 96.5t105.5 40.5h188q61 0 106 -40.5t45 -96.5v-123q0 -83 -61 -123q70 -40 70 -129v-199q0 -55 -47 -96t-105 -41h-188q-58 0 -104 41t-46 96v191h133v-170q0 -9 8 -17t21 -8h164q13 0 21 8t8 17v178q0 33 -26.5 49t-62.5 16h-174v125h174 q3 0 8.5 0.5t19.5 4t24.5 9.5t19 18.5t8.5 29.5v102q0 9 -8 17t-20 8h-164q-13 0 -21 -8t-8 -17v-26h-133zM385 0l631 1634h160l-631 -1634h-160zM774 188l311 650h250v-514h39v-136h-39v-188h-135v188h-426zM993 324h207v383h-31z" />
<glyph unicode="&#xbf;" horiz-adv-x="999" d="M86 -68v232q0 102 68 188q71 86 182 86h49q90 3 90 94v379h184v-379q0 -124 -74.5 -200t-197.5 -78h-51q-26 0 -46 -26.5t-20 -63.5v-232q0 -38 25 -63t63 -25h283q38 0 63 25t25 63v213h184v-213q0 -113 -79 -192q-80 -80 -193 -80h-283q-112 0 -192 80t-80 192z M475 1094v217h184v-217h-184z" />
<glyph unicode="&#xc0;" horiz-adv-x="1105" d="M37 0l266 1569q5 27 31.5 48t56.5 21h326q30 0 56.5 -21t31.5 -48l266 -1569h-184l-66 397h-534l-66 -397h-184zM260 2058h178l207 -268h-178zM317 582h474l-142 845q-6 27 -20 27h-150q-17 0 -20 -27z" />
<glyph unicode="&#xc1;" horiz-adv-x="1105" d="M37 0l266 1569q5 27 31.5 48t56.5 21h326q30 0 56.5 -21t31.5 -48l266 -1569h-184l-66 397h-534l-66 -397h-184zM317 582h474l-142 845q-6 27 -20 27h-150q-17 0 -20 -27zM471 1790l207 268h178l-207 -268h-178z" />
<glyph unicode="&#xc2;" horiz-adv-x="1105" d="M37 0l266 1569q5 27 31.5 48t56.5 21h326q30 0 56.5 -21t31.5 -48l266 -1569h-184l-66 397h-534l-66 -397h-184zM250 1796l254 303h100l254 -303h-164l-137 160h-6l-137 -160h-164zM317 582h474l-142 845q-6 27 -20 27h-150q-17 0 -20 -27z" />
<glyph unicode="&#xc3;" horiz-adv-x="1105" d="M37 0l266 1569q5 27 31.5 48t56.5 21h326q30 0 56.5 -21t31.5 -48l266 -1569h-184l-66 397h-534l-66 -397h-184zM289 1956q51 63 127 63q54 0 141 -37q90 -34 139 -34q64 0 115 57l10 -156q-56 -65 -125 -65q-50 0 -143 35q-85 36 -137 36q-65 0 -117 -55zM317 582h474 l-142 845q-6 27 -20 27h-150q-17 0 -20 -27z" />
<glyph unicode="&#xc4;" horiz-adv-x="1105" d="M37 0l266 1569q5 27 31.5 48t56.5 21h326q30 0 56.5 -21t31.5 -48l266 -1569h-184l-66 397h-534l-66 -397h-184zM317 582h474l-142 845q-6 27 -20 27h-150q-17 0 -20 -27zM342 1884q0 41 27.5 69.5t66.5 28.5t69 -29t30 -69q0 -38 -29 -66t-70 -28q-38 0 -66 28t-28 66z M578 1884q0 41 28.5 69.5t67.5 28.5t66.5 -28.5t27.5 -69.5q0 -38 -28 -66t-66 -28t-67 28t-29 66z" />
<glyph unicode="&#xc5;" horiz-adv-x="1105" d="M37 0l266 1569q5 27 31.5 48t56.5 21h326q30 0 56.5 -21t31.5 -48l266 -1569h-184l-66 397h-534l-66 -397h-184zM317 582h474l-142 845q-6 27 -20 27h-150q-17 0 -20 -27zM319 1946q0 97 68 165q70 70 168 70q99 0 166 -70q70 -67 70 -165t-70 -168q-68 -68 -166 -68 q-97 0 -168 68q-68 71 -68 168zM461 1946q0 -39 26 -68q29 -26 68.5 -26t65.5 26q29 29 29 68t-29 65q-26 29 -65.5 29t-68.5 -29q-26 -26 -26 -65z" />
<glyph unicode="&#xc6;" horiz-adv-x="1552" d="M37 0l264 1569q5 27 31.5 48t56.5 21h1084v-196h-547v-447h491v-184h-491v-627h547v-184h-732v397h-448l-72 -397h-184zM319 582h422v872h-264q-14 0 -20 -27z" />
<glyph unicode="&#xc7;" horiz-adv-x="1099" d="M129 274v1082q0 123 86 209t209 86h264q123 0 209 -86t86 -209v-258h-184v258q0 49 -30.5 79.5t-80.5 30.5h-264q-50 0 -80.5 -30.5t-30.5 -79.5v-1082q0 -49 30.5 -79.5t80.5 -30.5h268q79 0 92 31q15 27 15 79v324h184v-324q0 -122 -86 -208t-209 -86h-70l-8 -35 q81 -19 134 -85.5t53 -148.5q0 -101 -73 -169t-185 -68q-70 0 -168 61l71 113q64 -31 97 -31q53 0 83.5 26t30.5 68q0 38 -26 66t-66 28h-108l24 175h-53q-123 0 -209 86t-86 208z" />
<glyph unicode="&#xc8;" horiz-adv-x="970" d="M160 0v1638h731v-184h-547v-459h492v-184h-492v-627h547v-184h-731zM238 2058h178l207 -268h-179z" />
<glyph unicode="&#xc9;" horiz-adv-x="970" d="M160 0v1638h731v-184h-547v-459h492v-184h-492v-627h547v-184h-731zM449 1790l206 268h179l-207 -268h-178z" />
<glyph unicode="&#xca;" horiz-adv-x="970" d="M160 0v1638h731v-184h-547v-459h492v-184h-492v-627h547v-184h-731zM225 1796l254 303h101l254 -303h-164l-138 160h-6l-137 -160h-164z" />
<glyph unicode="&#xcb;" horiz-adv-x="970" d="M160 0v1638h731v-184h-547v-459h492v-184h-492v-627h547v-184h-731zM317 1884q0 41 28 69.5t67 28.5t68.5 -28.5t29.5 -69.5q0 -39 -28.5 -66.5t-69.5 -27.5q-38 0 -66.5 28t-28.5 66zM553 1884q0 41 28.5 69.5t67.5 28.5t66.5 -28.5t27.5 -69.5q0 -38 -28 -66t-66 -28 t-67 28t-29 66z" />
<glyph unicode="&#xcc;" horiz-adv-x="524" d="M-31 2058h178l207 -268h-178zM170 0v1638h184v-1638h-184z" />
<glyph unicode="&#xcd;" horiz-adv-x="524" d="M170 0v1638h184v-1638h-184zM180 1790l207 268h178l-207 -268h-178z" />
<glyph unicode="&#xce;" horiz-adv-x="524" d="M-43 1796l254 303h100l254 -303h-164l-137 160h-6l-137 -160h-164zM170 0v1638h184v-1638h-184z" />
<glyph unicode="&#xcf;" horiz-adv-x="524" d="M49 1884q0 41 27.5 69.5t66.5 28.5q41 0 70 -28.5t29 -69.5q0 -38 -29 -66t-70 -28q-38 0 -66 28t-28 66zM170 0v1638h184v-1638h-184zM285 1884q0 41 28.5 69.5t67.5 28.5t66.5 -28.5t27.5 -69.5q0 -38 -28 -66t-66 -28t-67 28t-29 66z" />
<glyph unicode="&#xd0;" horiz-adv-x="1130" d="M45 795v182h105v661h559q127 0 209 -82q86 -80 86 -200v-1061q0 -123 -86 -209t-209 -86h-559v795h-105zM334 184h375q49 0 79.5 30.5t30.5 80.5v1061q0 47 -29.5 72.5t-80.5 25.5h-375v-477h256v-182h-256v-611z" />
<glyph unicode="&#xd1;" horiz-adv-x="1234" d="M160 0v1638h329l383 -1454h19v1454h184v-1638h-327l-388 1454h-16v-1454h-184zM352 1956q51 63 127 63q55 0 142 -37q90 -34 139 -34q63 0 114 57l11 -156q-56 -65 -125 -65q-51 0 -144 35q-85 36 -137 36q-65 0 -117 -55z" />
<glyph unicode="&#xd2;" horiz-adv-x="1110" d="M129 274v1082q0 123 86 209t209 86h264q123 0 209 -86t86 -209v-1082q0 -122 -86 -208t-209 -86h-264q-123 0 -209 86t-86 208zM262 2058h178l207 -268h-178zM313 274q0 -49 30.5 -79.5t80.5 -30.5h264q50 0 80.5 30.5t30.5 79.5v1082q0 49 -30.5 79.5t-80.5 30.5h-264 q-50 0 -80.5 -30.5t-30.5 -79.5v-1082z" />
<glyph unicode="&#xd3;" horiz-adv-x="1110" d="M129 274v1082q0 123 86 209t209 86h264q123 0 209 -86t86 -209v-1082q0 -122 -86 -208t-209 -86h-264q-123 0 -209 86t-86 208zM313 274q0 -49 30.5 -79.5t80.5 -30.5h264q50 0 80.5 30.5t30.5 79.5v1082q0 49 -30.5 79.5t-80.5 30.5h-264q-50 0 -80.5 -30.5t-30.5 -79.5 v-1082zM473 1790l207 268h178l-207 -268h-178z" />
<glyph unicode="&#xd4;" horiz-adv-x="1110" d="M129 274v1082q0 123 86 209t209 86h264q123 0 209 -86t86 -209v-1082q0 -122 -86 -208t-209 -86h-264q-123 0 -209 86t-86 208zM252 1796l254 303h100l254 -303h-164l-137 160h-6l-137 -160h-164zM313 274q0 -49 30.5 -79.5t80.5 -30.5h264q50 0 80.5 30.5t30.5 79.5 v1082q0 49 -30.5 79.5t-80.5 30.5h-264q-50 0 -80.5 -30.5t-30.5 -79.5v-1082z" />
<glyph unicode="&#xd5;" horiz-adv-x="1110" d="M129 274v1082q0 123 86 209t209 86h264q123 0 209 -86t86 -209v-1082q0 -122 -86 -208t-209 -86h-264q-123 0 -209 86t-86 208zM291 1956q51 63 127 63q54 0 141 -37q90 -34 139 -34q64 0 115 57l10 -156q-56 -65 -125 -65q-50 0 -143 35q-85 36 -137 36q-65 0 -117 -55z M313 274q0 -49 30.5 -79.5t80.5 -30.5h264q50 0 80.5 30.5t30.5 79.5v1082q0 49 -30.5 79.5t-80.5 30.5h-264q-50 0 -80.5 -30.5t-30.5 -79.5v-1082z" />
<glyph unicode="&#xd6;" horiz-adv-x="1110" d="M129 274v1082q0 123 86 209t209 86h264q123 0 209 -86t86 -209v-1082q0 -122 -86 -208t-209 -86h-264q-123 0 -209 86t-86 208zM313 274q0 -49 30.5 -79.5t80.5 -30.5h264q50 0 80.5 30.5t30.5 79.5v1082q0 49 -30.5 79.5t-80.5 30.5h-264q-50 0 -80.5 -30.5t-30.5 -79.5 v-1082zM344 1884q0 41 27.5 69.5t66.5 28.5q41 0 70 -28.5t29 -69.5q0 -38 -29 -66t-70 -28q-38 0 -66 28t-28 66zM580 1884q0 41 28.5 69.5t67.5 28.5t66.5 -28.5t27.5 -69.5q0 -38 -28 -66t-66 -28t-67 28t-29 66z" />
<glyph unicode="&#xd7;" d="M203 508l207 205l-189 188l129 129l189 -188l188 188l129 -129l-188 -188l206 -205l-129 -129l-206 207l-207 -207z" />
<glyph unicode="&#xd8;" horiz-adv-x="1101" d="M106 -115l80 205q-63 81 -63 184v1082q0 123 86 209t209 86h264q60 0 106 -21l56 139h151l-88 -223q70 -82 70 -190v-1082q0 -122 -86 -208t-209 -86h-264q-57 0 -115 22l-45 -117h-152zM307 397l416 1063q-18 6 -41 6h-264q-50 0 -80.5 -30.5t-30.5 -79.5v-959zM371 172 q24 -8 47 -8h264q50 0 80.5 30.5t30.5 79.5v977z" />
<glyph unicode="&#xd9;" horiz-adv-x="1130" d="M137 274v1364h185v-1364q0 -50 30 -80t80 -30h266q50 0 80.5 30.5t30.5 79.5v1364h184v-1364q0 -122 -86 -208t-209 -86h-266q-123 0 -209 86t-86 208zM272 2058h179l206 -268h-178z" />
<glyph unicode="&#xda;" horiz-adv-x="1130" d="M137 274v1364h185v-1364q0 -50 30 -80t80 -30h266q50 0 80.5 30.5t30.5 79.5v1364h184v-1364q0 -122 -86 -208t-209 -86h-266q-123 0 -209 86t-86 208zM483 1790l207 268h178l-206 -268h-179z" />
<glyph unicode="&#xdb;" horiz-adv-x="1130" d="M137 274v1364h185v-1364q0 -50 30 -80t80 -30h266q50 0 80.5 30.5t30.5 79.5v1364h184v-1364q0 -122 -86 -208t-209 -86h-266q-123 0 -209 86t-86 208zM262 1796l254 303h100l254 -303h-163l-138 160h-6l-137 -160h-164z" />
<glyph unicode="&#xdc;" horiz-adv-x="1130" d="M137 274v1364h185v-1364q0 -50 30 -80t80 -30h266q50 0 80.5 30.5t30.5 79.5v1364h184v-1364q0 -122 -86 -208t-209 -86h-266q-123 0 -209 86t-86 208zM354 1884q0 41 28 69.5t67 28.5t68.5 -28.5t29.5 -69.5q0 -39 -28.5 -66.5t-69.5 -27.5q-38 0 -66.5 28t-28.5 66z M590 1884q0 41 28.5 69.5t67.5 28.5t66.5 -28.5t27.5 -69.5q0 -38 -28 -66t-66 -28t-67 28t-29 66z" />
<glyph unicode="&#xdd;" horiz-adv-x="1107" d="M37 1638h188l240 -972q3 -27 20 -27h148q14 0 20 27l236 972h184l-264 -1114q-7 -29 -37 -48t-67 -19h-58v-457h-182v457h-53q-38 0 -68.5 19t-34.5 48zM473 1790l207 268h178l-207 -268h-178z" />
<glyph unicode="&#xde;" horiz-adv-x="1077" d="M160 0v1620h184v-309h367q127 0 209 -82q86 -80 86 -201v-360q0 -123 -86 -209t-209 -86h-367v-373h-184zM344 557h367q49 0 79.5 30.5t30.5 80.5v360q0 47 -29.5 72.5t-80.5 25.5h-367v-569z" />
<glyph unicode="&#xdf;" horiz-adv-x="1067" d="M25 -135h49q41 0 65.5 24.5t24.5 63.5v1384q0 120 69 184t195 64h229q130 0 203.5 -64t73.5 -184v-237q0 -77 -44 -144t-114 -98q75 -26 123.5 -96t48.5 -150v-387q0 -116 -78.5 -180.5t-210.5 -64.5h-219v184h217q107 0 107 61v387q0 49 -49 101q-47 53 -82 53h-193v184 h193q37 0 76 51q41 53 41 99v237q0 64 -93 64h-229q-80 0 -80 -64v-1384q0 -113 -80 -193q-76 -79 -190 -79h-53v184z" />
<glyph unicode="&#xe0;" horiz-adv-x="985" d="M70 176v182q0 134 48 198.5t154 98.5l400 86v152q0 90 -111 90h-149q-113 0 -113 -90v-39h-184v39q0 123 88 199q87 75 209 75h149q123 -3 207 -75q88 -73 88 -197v-895h-184v127q-299 -147 -406 -147q-82 0 -139 57t-57 139zM197 1567h178l207 -269h-179zM254 258 q0 -92 27 -92q16 0 116 35q139 53 187 73l88 37v256l-357 -84q-37 -17 -49 -51.5t-12 -112.5v-61z" />
<glyph unicode="&#xe1;" horiz-adv-x="985" d="M70 176v182q0 134 48 198.5t154 98.5l400 86v152q0 90 -111 90h-149q-113 0 -113 -90v-39h-184v39q0 123 88 199q87 75 209 75h149q123 -3 207 -75q88 -73 88 -197v-895h-184v127q-299 -147 -406 -147q-82 0 -139 57t-57 139zM254 258q0 -92 27 -92q16 0 116 35 q139 53 187 73l88 37v256l-357 -84q-37 -17 -49 -51.5t-12 -112.5v-61zM408 1298l206 269h179l-207 -269h-178z" />
<glyph unicode="&#xe2;" horiz-adv-x="985" d="M70 176v182q0 134 48 198.5t154 98.5l400 86v152q0 90 -111 90h-149q-113 0 -113 -90v-39h-184v39q0 123 88 199q87 75 209 75h149q123 -3 207 -75q88 -73 88 -197v-895h-184v127q-299 -147 -406 -147q-82 0 -139 57t-57 139zM184 1305l254 303h101l254 -303h-164 l-137 159h-7l-137 -159h-164zM254 258q0 -92 27 -92q16 0 116 35q139 53 187 73l88 37v256l-357 -84q-37 -17 -49 -51.5t-12 -112.5v-61z" />
<glyph unicode="&#xe3;" horiz-adv-x="985" d="M70 176v182q0 134 48 198.5t154 98.5l400 86v152q0 90 -111 90h-149q-113 0 -113 -90v-39h-184v39q0 123 88 199q87 75 209 75h149q123 -3 207 -75q88 -73 88 -197v-895h-184v127q-299 -147 -406 -147q-82 0 -139 57t-57 139zM223 1464q52 64 127 64q55 0 142 -37 q93 -35 139 -35q63 0 114 57l11 -155q-57 -66 -125 -66q-51 0 -144 35q-87 37 -137 37q-65 0 -117 -55zM254 258q0 -92 27 -92q16 0 116 35q139 53 187 73l88 37v256l-357 -84q-37 -17 -49 -51.5t-12 -112.5v-61z" />
<glyph unicode="&#xe4;" horiz-adv-x="985" d="M70 176v182q0 134 48 198.5t154 98.5l400 86v152q0 90 -111 90h-149q-113 0 -113 -90v-39h-184v39q0 123 88 199q87 75 209 75h149q123 -3 207 -75q88 -73 88 -197v-895h-184v127q-299 -147 -406 -147q-82 0 -139 57t-57 139zM254 258q0 -92 27 -92q16 0 116 35 q139 53 187 73l88 37v256l-357 -84q-37 -17 -49 -51.5t-12 -112.5v-61zM276 1393q0 41 28 69.5t67 28.5t68.5 -28.5t29.5 -69.5q0 -39 -28.5 -67t-69.5 -28q-38 0 -66.5 28.5t-28.5 66.5zM512 1393q0 41 28.5 69.5t67.5 28.5t66.5 -28.5t27.5 -69.5q0 -38 -28 -66.5 t-66 -28.5t-67 28.5t-29 66.5z" />
<glyph unicode="&#xe5;" horiz-adv-x="985" d="M70 176v182q0 134 48 198.5t154 98.5l400 86v152q0 90 -111 90h-149q-113 0 -113 -90v-39h-184v39q0 123 88 199q87 75 209 75h149q123 -3 207 -75q88 -73 88 -197v-895h-184v127q-299 -147 -406 -147q-82 0 -139 57t-57 139zM254 258q0 -92 27 -92q16 0 116 35 q139 53 187 73l88 37v256l-357 -84q-37 -17 -49 -51.5t-12 -112.5v-61zM254 1454q0 98 68 166q70 70 167 70q99 0 166 -70q70 -67 70 -166q0 -98 -70 -168q-67 -67 -166 -67q-97 0 -167 67q-68 71 -68 168zM396 1454.5q0 -39.5 26 -68.5q29 -26 68 -26t65 26q29 29 29 68.5 t-29 65.5q-26 29 -65 29t-68 -29q-26 -26 -26 -65.5z" />
<glyph unicode="&#xe6;" horiz-adv-x="1558" d="M86 176v182q0 92 29 158q27 58 62.5 84t111.5 55l399 86v162q-3 78 -113 78h-147q-113 0 -113 -88v-39h-184v39q0 128 88 201t209 73h147q122 0 203 -69q75 69 183 69h241q113 0 193 -80t80 -192v-348h-603v-299q0 -38 25 -61t64 -23h241q38 0 63 25t25 63v147h185v-147 q0 -113 -80 -193q-79 -79 -193 -79h-241q-84 0 -150.5 43t-99.5 116l-23 -12q-299 -147 -405 -147q-82 0 -139.5 57t-57.5 139zM270 258q0 -92 27 -92q17 0 117 35q129 49 186 73l88 37v256l-356 -84q-37 -17 -49.5 -51.5t-12.5 -112.5v-61zM872 731h418v164q0 38 -25 63 t-63 25h-241q-39 0 -64 -23t-25 -59v-170z" />
<glyph unicode="&#xe7;" horiz-adv-x="964" d="M119 252v643q0 112 80 192t192 80h242q112 0 192 -80t80 -192v-154h-184v154q0 38 -25 63t-63 25h-242q-38 0 -63 -25t-25 -63v-643q0 -38 25 -63t63 -25h242q38 0 63 25t25 63v147h184v-147q0 -113 -80 -193q-79 -79 -192 -79h-78l-8 -35q81 -19 133.5 -85.5 t52.5 -148.5q0 -101 -73 -169t-185 -68q-70 0 -168 61l72 113q64 -31 96 -31q53 0 84 26t31 68q0 38 -26 66t-66 28h-109l25 175h-23q-113 0 -192 79q-80 80 -80 193z" />
<glyph unicode="&#xe8;" horiz-adv-x="987" d="M119 252v643q0 112 80 192t192 80h242q112 0 192 -80t80 -192v-348h-602v-295q0 -38 25 -63t63 -25h242q38 0 63 25t25 63v147h184v-147q0 -113 -80 -193q-79 -79 -192 -79h-242q-113 0 -192 79q-80 80 -80 193zM205 1567h178l207 -269h-178zM303 731h418v164 q0 38 -25 63t-63 25h-242q-38 0 -63 -25t-25 -63v-164z" />
<glyph unicode="&#xe9;" horiz-adv-x="987" d="M119 252v643q0 112 80 192t192 80h242q112 0 192 -80t80 -192v-348h-602v-295q0 -38 25 -63t63 -25h242q38 0 63 25t25 63v147h184v-147q0 -113 -80 -193q-79 -79 -192 -79h-242q-113 0 -192 79q-80 80 -80 193zM303 731h418v164q0 38 -25 63t-63 25h-242q-38 0 -63 -25 t-25 -63v-164zM416 1298l207 269h178l-207 -269h-178z" />
<glyph unicode="&#xea;" horiz-adv-x="987" d="M119 252v643q0 112 80 192t192 80h242q112 0 192 -80t80 -192v-348h-602v-295q0 -38 25 -63t63 -25h242q38 0 63 25t25 63v147h184v-147q0 -113 -80 -193q-79 -79 -192 -79h-242q-113 0 -192 79q-80 80 -80 193zM193 1305l253 303h101l254 -303h-164l-137 159h-6 l-138 -159h-163zM303 731h418v164q0 38 -25 63t-63 25h-242q-38 0 -63 -25t-25 -63v-164z" />
<glyph unicode="&#xeb;" horiz-adv-x="987" d="M119 252v643q0 112 80 192t192 80h242q112 0 192 -80t80 -192v-348h-602v-295q0 -38 25 -63t63 -25h242q38 0 63 25t25 63v147h184v-147q0 -113 -80 -193q-79 -79 -192 -79h-242q-113 0 -192 79q-80 80 -80 193zM285 1393q0 41 27.5 69.5t66.5 28.5t68.5 -28.5 t29.5 -69.5q0 -39 -28.5 -67t-69.5 -28q-38 0 -66 28.5t-28 66.5zM303 731h418v164q0 38 -25 63t-63 25h-242q-38 0 -63 -25t-25 -63v-164zM520 1393q0 41 28.5 69.5t67.5 28.5t67 -28.5t28 -69.5q0 -38 -28.5 -66.5t-66.5 -28.5t-67 28.5t-29 66.5z" />
<glyph unicode="&#xec;" horiz-adv-x="567" d="M-51 1567h178l207 -269h-178zM147 252v895h187v-895q0 -39 24.5 -63.5t65.5 -24.5h98v-184h-102q-114 0 -193 79q-80 80 -80 193z" />
<glyph unicode="&#xed;" horiz-adv-x="567" d="M147 252v895h187v-895q0 -39 24.5 -63.5t65.5 -24.5h98v-184h-102q-114 0 -193 79q-80 80 -80 193zM160 1298l207 269h178l-207 -269h-178z" />
<glyph unicode="&#xee;" horiz-adv-x="567" d="M-63 1305l256 303h100l254 -303h-164l-137 159h-6l-138 -159h-165zM147 252v895h187v-895q0 -39 24.5 -63.5t65.5 -24.5h98v-184h-102q-114 0 -193 79q-80 80 -80 193z" />
<glyph unicode="&#xef;" horiz-adv-x="567" d="M31 1393q0 41 27.5 69.5t66.5 28.5t68.5 -28.5t29.5 -69.5q0 -39 -28.5 -67t-69.5 -28q-38 0 -66 28.5t-28 66.5zM147 252v895h187v-895q0 -39 24.5 -63.5t65.5 -24.5h98v-184h-102q-114 0 -193 79q-80 80 -80 193zM266 1393q0 41 28.5 69.5t67.5 28.5t67 -28.5t28 -69.5 q0 -38 -28.5 -66.5t-66.5 -28.5t-67 28.5t-29 66.5z" />
<glyph unicode="&#xf0;" horiz-adv-x="1062" d="M119 254v362q0 113 80 193t192 80h242q51 0 88 -15v119h-205v170h205v174q0 38 -25 63t-63 25h-242q-38 0 -63 -25t-25 -63v-176h-184v176q0 113 80 193t192 80h242q112 0 192 -80t80 -193v-174h135v-170h-135v-739q0 -113 -80 -193q-79 -79 -192 -79h-242 q-113 0 -192 79q-80 80 -80 193zM303 254q0 -41 24.5 -64.5t63.5 -23.5h242q39 0 63.5 23.5t24.5 64.5v364q0 39 -23.5 63t-64.5 24h-242q-38 0 -63 -25.5t-25 -63.5v-362z" />
<glyph unicode="&#xf1;" horiz-adv-x="1052" d="M139 0v1147h185v-127q301 145 405 145q82 0 139.5 -57t57.5 -139v-969h-185v913q0 66 -26 66q-19 0 -117 -37q-107 -41 -186 -74l-88 -34v-834h-185zM262 1464q52 64 127 64q54 0 141 -37q93 -35 140 -35q63 0 114 57l11 -155q-57 -66 -125 -66q-51 0 -144 35 q-87 37 -137 37q-65 0 -117 -55z" />
<glyph unicode="&#xf2;" horiz-adv-x="1021" d="M119 252v643q0 112 80 192t192 80h242q112 0 192 -80t80 -192v-643q0 -113 -80 -193q-79 -79 -192 -79h-242q-113 0 -192 79q-80 80 -80 193zM219 1567h178l207 -269h-178zM303 252q0 -38 25 -63t63 -25h242q47 0 67.5 18t20.5 70v643q0 38 -25 63t-63 25h-242 q-38 0 -63 -25t-25 -63v-643z" />
<glyph unicode="&#xf3;" horiz-adv-x="1021" d="M119 252v643q0 112 80 192t192 80h242q112 0 192 -80t80 -192v-643q0 -113 -80 -193q-79 -79 -192 -79h-242q-113 0 -192 79q-80 80 -80 193zM303 252q0 -38 25 -63t63 -25h242q47 0 67.5 18t20.5 70v643q0 38 -25 63t-63 25h-242q-38 0 -63 -25t-25 -63v-643zM430 1298 l207 269h178l-207 -269h-178z" />
<glyph unicode="&#xf4;" horiz-adv-x="1021" d="M119 252v643q0 112 80 192t192 80h242q112 0 192 -80t80 -192v-643q0 -113 -80 -193q-79 -79 -192 -79h-242q-113 0 -192 79q-80 80 -80 193zM207 1305l254 303h100l254 -303h-164l-137 159h-6l-137 -159h-164zM303 252q0 -38 25 -63t63 -25h242q47 0 67.5 18t20.5 70 v643q0 38 -25 63t-63 25h-242q-38 0 -63 -25t-25 -63v-643z" />
<glyph unicode="&#xf5;" horiz-adv-x="1021" d="M119 252v643q0 112 80 192t192 80h242q112 0 192 -80t80 -192v-643q0 -113 -80 -193q-79 -79 -192 -79h-242q-113 0 -192 79q-80 80 -80 193zM246 1464q52 64 127 64q54 0 141 -37q93 -35 139 -35q64 0 115 57l10 -155q-57 -66 -125 -66q-50 0 -143 35q-87 37 -137 37 q-65 0 -117 -55zM303 252q0 -38 25 -63t63 -25h242q47 0 67.5 18t20.5 70v643q0 38 -25 63t-63 25h-242q-38 0 -63 -25t-25 -63v-643z" />
<glyph unicode="&#xf6;" horiz-adv-x="1021" d="M119 252v643q0 112 80 192t192 80h242q112 0 192 -80t80 -192v-643q0 -113 -80 -193q-79 -79 -192 -79h-242q-113 0 -192 79q-80 80 -80 193zM299 1393q0 41 27.5 69.5t66.5 28.5q41 0 70 -28.5t29 -69.5q0 -39 -29 -67t-70 -28q-38 0 -66 28.5t-28 66.5zM303 252 q0 -38 25 -63t63 -25h242q47 0 67.5 18t20.5 70v643q0 38 -25 63t-63 25h-242q-38 0 -63 -25t-25 -63v-643zM535 1393q0 41 28.5 69.5t67.5 28.5t66.5 -28.5t27.5 -69.5q0 -38 -28 -66.5t-66 -28.5t-67 28.5t-29 66.5z" />
<glyph unicode="&#xf7;" d="M180 629v182h717v-182h-717zM436 436.5q0 40.5 29 71.5q31 31 71.5 31t71.5 -31t31 -71.5t-31 -71.5q-31 -29 -71.5 -29t-71.5 29q-29 31 -29 71.5zM436 1005.5q0 40.5 29 71.5q31 31 71.5 31t71.5 -31t31 -71.5t-31 -71.5q-31 -29 -71.5 -29t-71.5 29q-29 31 -29 71.5z " />
<glyph unicode="&#xf8;" horiz-adv-x="1058" d="M119 -59l80 163q-43 70 -43 148v643q0 112 80 192t192 80h242q39 0 63 -8l25 49h168l-62 -123q78 -78 78 -190v-643q0 -113 -80 -193q-79 -79 -192 -79h-242q-62 0 -111 24l-32 -63h-166zM340 383l307 600h-219q-38 0 -63 -25t-25 -63v-512zM399 168q28 -4 29 -4h242 q47 0 67.5 18t20.5 70v620z" />
<glyph unicode="&#xf9;" horiz-adv-x="1052" d="M127 178v969h184v-914q0 -65 27 -65q17 0 117 35q129 49 186 73l88 37v834h184v-1147h-184v127q-301 -145 -405 -145q-82 0 -139.5 57t-57.5 139zM236 1567h178l207 -269h-179z" />
<glyph unicode="&#xfa;" horiz-adv-x="1052" d="M127 178v969h184v-914q0 -65 27 -65q17 0 117 35q129 49 186 73l88 37v834h184v-1147h-184v127q-301 -145 -405 -145q-82 0 -139.5 57t-57.5 139zM446 1298l207 269h178l-206 -269h-179z" />
<glyph unicode="&#xfb;" horiz-adv-x="1052" d="M127 178v969h184v-914q0 -65 27 -65q17 0 117 35q129 49 186 73l88 37v834h184v-1147h-184v127q-301 -145 -405 -145q-82 0 -139.5 57t-57.5 139zM223 1305l254 303h101l253 -303h-163l-138 159h-6l-137 -159h-164z" />
<glyph unicode="&#xfc;" horiz-adv-x="1052" d="M127 178v969h184v-914q0 -65 27 -65q17 0 117 35q129 49 186 73l88 37v834h184v-1147h-184v127q-301 -145 -405 -145q-82 0 -139.5 57t-57.5 139zM315 1393q0 41 28 69.5t67 28.5q41 0 69.5 -28.5t28.5 -69.5q0 -39 -28.5 -67t-69.5 -28q-38 0 -66.5 28.5t-28.5 66.5z M551 1393q0 41 28.5 69.5t67.5 28.5t66.5 -28.5t27.5 -69.5q0 -38 -28 -66.5t-66 -28.5t-67 28.5t-29 66.5z" />
<glyph unicode="&#xfd;" horiz-adv-x="913" d="M37 1145h188l154 -955q0 -4 2 -8q2 -11 5 -14.5t13 -3.5h121q15 0 21 26l153 955h185l-244 -1464h-176l47 299h-195q-30 0 -56.5 21t-31.5 48zM377 1298l207 269h178l-207 -269h-178z" />
<glyph unicode="&#xfe;" horiz-adv-x="1042" d="M139 -301v1866h185v-545q316 147 417 147q79 0 131 -55.5t54 -140.5v-719q-3 -116 -82 -195q-80 -77 -193 -77h-239q-48 0 -88 12v-293h-185zM324 252q0 -41 23.5 -64.5t62.5 -23.5h241q38 0 64 24.5t26 61.5v676q0 55 -30 55q-41 0 -387 -145v-584z" />
<glyph unicode="&#xff;" horiz-adv-x="913" d="M37 1145h188l154 -955q0 -4 2 -8q2 -11 5 -14.5t13 -3.5h121q15 0 21 26l153 955h185l-244 -1464h-176l47 299h-195q-30 0 -56.5 21t-31.5 48zM246 1393q0 41 27.5 69.5t66.5 28.5q41 0 69.5 -28.5t28.5 -69.5q0 -39 -28.5 -67t-69.5 -28q-38 0 -66 28.5t-28 66.5z M481 1393q0 41 29 69.5t68 28.5t66.5 -28.5t27.5 -69.5q0 -38 -28 -66.5t-66 -28.5t-67.5 28.5t-29.5 66.5z" />
<glyph unicode="&#x152;" horiz-adv-x="1609" d="M129 272v1084q0 123 86 209t209 86h264q52 0 111 -21v8h731v-184h-547v-459h492v-184h-492v-627h547v-184h-727q-74 -23 -115 -23h-264q-123 0 -209 86t-86 209zM313 274q0 -49 30.5 -79.5t80.5 -30.5h264q50 0 80.5 30.5t30.5 79.5v1082q0 49 -30.5 79.5t-80.5 30.5 h-264q-50 0 -80.5 -30.5t-30.5 -79.5v-1082z" />
<glyph unicode="&#x153;" horiz-adv-x="1589" d="M119 252v643q0 112 80 192t192 80h242q98 0 180 -67q76 67 180 67h242q112 0 192 -80t80 -192v-332h-602v-311q0 -38 25 -63t63 -25h242q38 0 63 25t25 63v147h184v-147q0 -113 -80 -193q-79 -79 -192 -79h-242q-107 0 -180 67q-76 -67 -180 -67h-242q-113 0 -192 79 q-80 80 -80 193zM303 252q0 -38 25 -63t63 -25h242q46 0 66.5 15.5t21.5 60.5v655q0 38 -25 63t-63 25h-242q-38 0 -63 -25t-25 -63v-643zM905 748h418v147q0 38 -25 63t-63 25h-242q-38 0 -63 -25t-25 -63v-147z" />
<glyph unicode="&#x178;" horiz-adv-x="1107" d="M37 1638h188l240 -972q3 -27 20 -27h148q14 0 20 27l236 972h184l-264 -1114q-7 -29 -37 -48t-67 -19h-58v-457h-182v457h-53q-38 0 -68.5 19t-34.5 48zM344 1884q0 41 27.5 69.5t66.5 28.5q41 0 70 -28.5t29 -69.5q0 -38 -29 -66t-70 -28q-38 0 -66 28t-28 66zM580 1884 q0 41 28.5 69.5t67.5 28.5t66.5 -28.5t27.5 -69.5q0 -38 -28 -66t-66 -28t-67 28t-29 66z" />
<glyph unicode="&#x2c6;" horiz-adv-x="747" d="M80 1305l254 303h100l254 -303h-164l-137 159h-6l-137 -159h-164z" />
<glyph unicode="&#x2dc;" horiz-adv-x="659" d="M66 1464q52 64 127 64q54 0 141 -37q93 -35 139 -35q64 0 115 57l10 -155q-57 -66 -125 -66q-50 0 -143 35q-87 37 -137 37q-65 0 -117 -55z" />
<glyph unicode="&#x2000;" horiz-adv-x="1090" />
<glyph unicode="&#x2001;" horiz-adv-x="2181" />
<glyph unicode="&#x2002;" horiz-adv-x="1090" />
<glyph unicode="&#x2003;" horiz-adv-x="2181" />
<glyph unicode="&#x2004;" horiz-adv-x="727" />
<glyph unicode="&#x2005;" horiz-adv-x="545" />
<glyph unicode="&#x2006;" horiz-adv-x="363" />
<glyph unicode="&#x2007;" horiz-adv-x="363" />
<glyph unicode="&#x2008;" horiz-adv-x="272" />
<glyph unicode="&#x2009;" horiz-adv-x="436" />
<glyph unicode="&#x200a;" horiz-adv-x="121" />
<glyph unicode="&#x2010;" horiz-adv-x="841" d="M119 629v182h606v-182h-606z" />
<glyph unicode="&#x2011;" horiz-adv-x="841" d="M119 629v182h606v-182h-606z" />
<glyph unicode="&#x2012;" horiz-adv-x="841" d="M119 629v182h606v-182h-606z" />
<glyph unicode="&#x2013;" horiz-adv-x="817" d="M16 629v182h787v-182h-787z" />
<glyph unicode="&#x2014;" horiz-adv-x="1386" d="M16 629v182h1356v-182h-1356z" />
<glyph unicode="&#x2018;" horiz-adv-x="487" d="M119 1397q0 40 16 86l60 153l151 -32l-59 -156q-8 -21 -8 -49q0 -68 92 -103l-95 -90q-157 59 -157 191z" />
<glyph unicode="&#x2019;" horiz-adv-x="487" d="M117 1554l94 91q158 -59 158 -191q0 -37 -17 -86l-59 -154l-152 33l60 156q8 21 8 49q0 67 -92 102z" />
<glyph unicode="&#x201a;" horiz-adv-x="487" d="M117 18l94 91q158 -59 158 -191q0 -37 -17 -86l-59 -154l-152 33l60 156q8 21 8 49q0 67 -92 102z" />
<glyph unicode="&#x201c;" horiz-adv-x="753" d="M119 1397q0 40 16 86l60 153l151 -32l-59 -156q-8 -21 -8 -49q0 -68 92 -103l-95 -90q-157 59 -157 191zM385 1397q0 40 16 86l60 153l151 -32l-59 -156q-8 -21 -8 -49q0 -68 92 -103l-94 -90q-158 59 -158 191z" />
<glyph unicode="&#x201d;" horiz-adv-x="753" d="M117 1554l94 91q158 -59 158 -191q0 -37 -17 -86l-59 -154l-152 33l60 156q8 21 8 49q0 67 -92 102zM383 1554l94 91q158 -59 158 -191q0 -37 -17 -86l-59 -154l-151 33l59 156q8 21 8 49q0 67 -92 102z" />
<glyph unicode="&#x201e;" horiz-adv-x="753" d="M117 12l94 90q158 -59 158 -190q0 -37 -17 -86l-59 -154l-152 33l60 156q8 21 8 49q0 67 -92 102zM383 12l94 90q158 -59 158 -190q0 -37 -17 -86l-59 -154l-151 33l59 156q8 21 8 49q0 67 -92 102z" />
<glyph unicode="&#x2022;" horiz-adv-x="571" d="M130 673.5q0 63.5 44 110.5q47 47 113 47t110 -47q47 -47 47 -110.5t-47 -110.5q-44 -47 -110 -47t-113 47q-44 47 -44 110.5z" />
<glyph unicode="&#x2026;" horiz-adv-x="1155" d="M129 100.5q0 40.5 29 71.5q31 31 71.5 31t71.5 -31t31 -71.5t-31 -71.5q-31 -29 -71.5 -29t-71.5 29q-29 31 -29 71.5zM477 100.5q0 40.5 29 71.5q31 31 71.5 31t71.5 -31t31 -71.5t-31 -71.5q-31 -29 -71.5 -29t-71.5 29q-29 31 -29 71.5zM825 100.5q0 40.5 29 71.5 q31 31 71.5 31t71.5 -31t31 -71.5t-31 -71.5q-31 -29 -71.5 -29t-71.5 29q-29 31 -29 71.5z" />
<glyph unicode="&#x202f;" horiz-adv-x="436" />
<glyph unicode="&#x2039;" horiz-adv-x="768" d="M80 489l412 302l149 -70l-324 -232l324 -231l-149 -70z" />
<glyph unicode="&#x203a;" horiz-adv-x="768" d="M129 258l324 231l-324 232l150 70l411 -302l-411 -301z" />
<glyph unicode="&#x205f;" horiz-adv-x="545" />
<glyph unicode="&#x20ac;" d="M66 635v143h112v74h-112v143h112v299q0 123 86 209t209 86h240q123 0 209 -86t86 -209v-258h-185v258q0 50 -30.5 80.5t-79.5 30.5h-240q-49 0 -80 -30.5t-31 -80.5v-299h369v-143h-369v-74h369v-143h-369v-361q0 -49 30.5 -79.5t80.5 -30.5h240q57 0 81.5 25t24.5 85 v324h189v-324q0 -122 -86 -208t-209 -86h-240q-123 0 -209 86t-86 208v361h-112z" />
<glyph unicode="&#x2122;" horiz-adv-x="1478" d="M129 1546v92h483v-92h-196v-735h-92v735h-195zM676 811l33 827h172l133 -616l127 616h178l33 -827h-95l-30 735h-10l-162 -723h-84l-162 723h-10l-31 -735h-92z" />
<glyph unicode="&#x25fc;" horiz-adv-x="1146" d="M0 0v1147h1147v-1147h-1147z" />
</font>
</defs>
</svg>
