<?xml version="1.0" standalone="no"?>
<!DOCTYPE svg PUBLIC "-//W3C//DTD SVG 20010904//EN"
 "http://www.w3.org/TR/2001/REC-SVG-20010904/DTD/svg10.dtd">
<svg version="1.0" xmlns="http://www.w3.org/2000/svg"
 width="260.000000pt" height="260.000000pt" viewBox="0 0 260.000000 260.000000"
 preserveAspectRatio="xMidYMid meet">
<metadata>
Created by potrace 1.11, written by Peter Selinger 2001-2013
</metadata>
<g transform="translate(0.000000,260.000000) scale(0.100000,-0.100000)"
fill="#000000" stroke="none">
<path d="M0 1300 l0 -1300 1300 0 1300 0 0 1300 0 1300 -1300 0 -1300 0 0
-1300z m1595 745 c96 -28 211 -84 288 -141 44 -32 47 -37 34 -52 -7 -9 -56
-69 -107 -132 -52 -63 -97 -119 -101 -124 -4 -5 -29 7 -56 26 -103 75 -174 99
-297 99 -179 0 -304 -90 -362 -261 -28 -80 -25 -273 4 -352 61 -168 180 -248
365 -248 124 1 211 33 312 114 l30 25 118 -126 c64 -69 117 -129 117 -133 0
-12 -152 -121 -212 -151 -194 -98 -453 -115 -667 -43 -322 107 -525 419 -508
779 11 231 91 405 252 553 65 59 196 135 279 162 147 47 358 49 511 5z"/>
</g>
</svg>
