<?xml version="1.0" encoding="utf-8"?>
<!-- Generator: Adobe Illustrator 18.0.0, SVG Export Plug-In . SVG Version: 6.00 Build 0)  -->
<!DOCTYPE svg PUBLIC "-//W3C//DTD SVG 1.1//EN" "http://www.w3.org/Graphics/SVG/1.1/DTD/svg11.dtd">
<svg version="1.1" id="Camada_1" xmlns="http://www.w3.org/2000/svg" xmlns:xlink="http://www.w3.org/1999/xlink" x="0px" y="0px"
	 viewBox="0 0 156 35.8" enable-background="new 0 0 156 35.8" xml:space="preserve">
<g>
	<g>
		<path fill="#69127B" d="M35.4,4.5l3.4,21.2c0,0.3,0.2,0.4,0.3,0.4h2.1c0.1,0,0.2-0.1,0.3-0.4l3.5-21.2h2.7l-4,23.3
			c-0.1,0.5-0.7,1-1.3,1h-4.7c-0.6,0-1.2-0.5-1.3-1L32.6,4.5H35.4z"/>
		<path fill="#69127B" d="M50.2,8.7c0-1.2,0.4-2.2,1.3-3.1s1.9-1.3,3.1-1.3h3.9c1.2,0,2.2,0.4,3.1,1.3s1.3,1.9,1.3,3.1v15.8
			c0,1.2-0.4,2.2-1.3,3.1s-1.9,1.3-3.1,1.3h-3.9c-1.2,0-2.2-0.4-3.1-1.3s-1.3-1.9-1.3-3.1V8.7z M52.9,24.5c0,1,0.7,1.6,1.6,1.6h3.9
			c1,0,1.6-0.7,1.6-1.6V8.7c0-1-0.7-1.6-1.6-1.6h-3.9c-1,0-1.6,0.7-1.6,1.6V24.5z"/>
		<path fill="#69127B" d="M69.6,4.5v21.3h8v2.7H66.9v-24H69.6z"/>
		<path fill="#69127B" d="M76.2,7.2V4.5h13.2v2.7h-5.3v21.3h-2.7V7.2H76.2z"/>
		<path fill="#69127B" d="M100.4,22.7h-7.8l-1,5.8h-2.7l3.9-23c0.1-0.5,0.7-1,1.3-1h4.8c0.6,0,1.2,0.5,1.3,1l3.9,23h-2.7L100.4,22.7
			z M100,20L97.9,7.6c-0.1-0.3-0.2-0.4-0.3-0.4h-2.2c-0.2,0-0.3,0.1-0.3,0.4L93,20H100z"/>
		<path fill="#69127B" d="M115.6,4.5c1,0,1.9,0.4,2.6,1c0.7,0.7,1,1.6,1,2.6v4.3c0,1.5-1,2.9-2.3,3.5c1.5,0.6,2.5,2,2.5,3.6v8.9
			h-2.7v-8.9c0-1.1-0.4-1.9-1.3-2.3h-5.8v11.2h-2.7v-24H115.6z M115.5,14.6c0.7-0.3,1-1,1-2.1V8.1c0-0.5-0.4-0.9-1-0.9h-5.9v7.4
			H115.5z"/>
	</g>
</g>
<rect x="0" y="33.8" fill="#6A0D81" width="156" height="2"/>
</svg>
