<?xml version="1.0" encoding="utf-8"?>
<!-- Generator: Adobe Illustrator 18.0.0, SVG Export Plug-In . SVG Version: 6.00 Build 0)  -->
<!DOCTYPE svg PUBLIC "-//W3C//DTD SVG 1.1//EN" "http://www.w3.org/Graphics/SVG/1.1/DTD/svg11.dtd">
<svg version="1.1" id="Camada_1" xmlns="http://www.w3.org/2000/svg" xmlns:xlink="http://www.w3.org/1999/xlink" x="0px" y="0px"
	 viewBox="0 0 73.1 70" enable-background="new 0 0 73.1 70" xml:space="preserve">
<path fill="#C4C4C3" d="M36.6,3.6C19.2,3.6,5.2,17.7,5.2,35c0,17.3,14,31.4,31.4,31.4s31.4-14,31.4-31.4
	C67.9,17.7,53.9,3.6,36.6,3.6z M36.6,63.1C21.1,63.1,8.5,50.5,8.5,35c0-15.5,12.6-28.1,28.1-28.1S64.6,19.5,64.6,35
	C64.6,50.5,52.1,63.1,36.6,63.1z"/>
<path fill="#F9A30E" d="M26.2,44.7v24.4h20.4V44.7h26V24.5h-26V0.9H26.2v23.5H0.4v20.2H26.2z"/>
</svg>
