<?xml version="1.0" encoding="utf-8"?>
<!-- Generator: Adobe Illustrator 18.0.0, SVG Export Plug-In . SVG Version: 6.00 Build 0)  -->
<!DOCTYPE svg PUBLIC "-//W3C//DTD SVG 1.1//EN" "http://www.w3.org/Graphics/SVG/1.1/DTD/svg11.dtd">
<svg version="1.1" id="Camada_1" xmlns="http://www.w3.org/2000/svg" xmlns:xlink="http://www.w3.org/1999/xlink" x="0px" y="0px"
	 viewBox="0 0 342 97" enable-background="new 0 0 342 97" xml:space="preserve">
<path fill="#6A0D81" d="M82.8,32.3h8.9v19.8c0,8.9-5.6,13.1-14.1,13.1c-8.4,0-14.1-4.2-14.1-13.1V32.3h8.9v19.9
	c0,3.4,1.9,5.5,5.2,5.5c3.3,0,5.2-2.2,5.2-5.5V32.3z M47.2,57.8c-5.2,0-8.3-3.6-8.3-9.3c0-5.6,3.2-9.2,8.3-9.2c3.3,0,5.3,1.3,7.2,3
	l4.9-6c-3.5-2.9-7.5-4.5-12.3-4.5c-9.9,0-17,7.2-17,16.7c0,9.6,6.8,16.8,16.7,16.8c5.3,0,9.3-1.8,12.9-5.1l-5.1-5.4
	C52.7,56.5,50.4,57.8,47.2,57.8z M105.6,32.3h-8.9v32.3h21.1V57h-12.2V32.3z M241.2,64.7h-9.5l-1.5-4.8h-10.4l-1.4,4.8H209
	l11.2-32.3h9.8L241.2,64.7z M228.3,53.3l-3.2-10.6h-0.1l-3.2,10.6H228.3z M313.4,64.7h-9.5l-1.5-4.8h-10.4l-1.4,4.8h-9.5l11.2-32.3
	h9.8L313.4,64.7z M300.5,53.3l-3.2-10.6h-0.1l-3.2,10.6H300.5z M261.3,44.3l-8.5-12H244v32.3h8.4v-20l8.9,12.3l8.9-12.3v20h8.3V32.3
	h-8.7L261.3,44.3z M207.5,64.7h-9.4l-4.2-11.5h-5.4v11.5h-8.9V32.3H194c9.8,0,13.1,5.2,13.1,10.6c0,3.7-1.6,7-5.4,8.8L207.5,64.7z
	 M198.3,43.1c0-2.6-1.7-3.8-4.3-3.8h-5.5v7.7h5.5C196.6,46.9,198.3,45.6,198.3,43.1z M165.7,52.2c0,3.4-2,5.5-5.2,5.5
	c-3.3,0-5.2-2.2-5.2-5.5V32.3h-8.9v19.8c0,8.9,5.7,13.1,14.1,13.1c8.5,0,14.1-4.2,14.1-13.1V32.3h-8.9V52.2z M113.7,40.2h10v24.5
	h8.8V40.2h10v-7.9h-28.8V40.2z M342,0v97H0V0h0H342L342,0z M334.2,89.1V7.9H7.8v81.3H334.2z"/>
</svg>
