<?xml version="1.0" encoding="utf-8"?>
<!-- Generator: Adobe Illustrator 18.0.0, SVG Export Plug-In . SVG Version: 6.00 Build 0)  -->
<!DOCTYPE svg PUBLIC "-//W3C//DTD SVG 1.1//EN" "http://www.w3.org/Graphics/SVG/1.1/DTD/svg11.dtd">
<svg version="1.1" id="Camada_1" xmlns="http://www.w3.org/2000/svg" xmlns:xlink="http://www.w3.org/1999/xlink" x="0px" y="0px"
	 viewBox="0 0 40 40" enable-background="new 0 0 40 40" xml:space="preserve">
<g id="Camada_1">
	<g>
		<g>
			<g>
				<path fill-rule="evenodd" clip-rule="evenodd" fill="#69127B" d="M10,12h20v3H10V12z"/>
			</g>
		</g>
		<g>
			<g>
				<path fill-rule="evenodd" clip-rule="evenodd" fill="#69127B" d="M10,16h20v3H10V16z"/>
			</g>
		</g>
		<g>
			<g>
				<path fill-rule="evenodd" clip-rule="evenodd" fill="#69127B" d="M10,20h20v3H10V20z"/>
			</g>
		</g>
		<g>
			<g>
				<path fill-rule="evenodd" clip-rule="evenodd" fill="#69127B" d="M10,24h20v3H10V24z"/>
			</g>
		</g>
		<g>
			<path fill="#69127B" d="M14.8,8.6c0-0.8-0.1-1.7-0.1-2.4h0c-0.2,0.7-0.4,1.4-0.7,2.1L13,11h-0.5l-0.9-2.7
				c-0.3-0.8-0.5-1.5-0.7-2.2h0c0,0.7-0.1,1.6-0.1,2.5l-0.1,2.4H9.9l0.4-5.6h0.9l1,2.7c0.2,0.7,0.4,1.3,0.6,1.9h0
				c0.1-0.6,0.3-1.2,0.6-1.9l1-2.7h0.9l0.3,5.6h-0.7L14.8,8.6z"/>
			<path fill="#69127B" d="M19.5,8.4h-2.2v2h2.4v0.6h-3.2V5.5h3v0.6h-2.3v1.8h2.2V8.4z"/>
			<path fill="#69127B" d="M20.5,11.1V5.5h0.8l1.8,2.8c0.4,0.7,0.7,1.3,1,1.8l0,0C24.1,9.4,24,8.7,24,7.8V5.5h0.7v5.6H24l-1.8-2.8
				c-0.4-0.6-0.8-1.3-1-1.9l0,0c0,0.7,0.1,1.4,0.1,2.3v2.4H20.5z"/>
			<path fill="#69127B" d="M26.6,5.5v3.3c0,1.3,0.6,1.8,1.3,1.8c0.8,0,1.4-0.5,1.4-1.8V5.5H30v3.3c0,1.7-0.9,2.4-2.1,2.4
				c-1.1,0-2-0.7-2-2.4V5.5H26.6z"/>
		</g>
	</g>
</g>
</svg>
